<?xml version="1.0"?>
<svg xmlns="http://www.w3.org/2000/svg" xmlns:xlink="http://www.w3.org/1999/xlink" width="305" height="126.470596">
	<defs>
		<marker id="CustomMarker-01" markerUnits="strokeWidth" markerWidth="15.000001" markerHeight="9" viewBox="-15 -4.5 15 9" orient="auto-start-reverse">
			<path d="M 0 -0 L -10 -3, -8 -0.5, -8 0.5, -10 3 Z" fill="#000000" stroke="#000000" stroke-linejoin="round" />
		</marker>
		<marker id="CustomMarker-02" markerUnits="strokeWidth" markerWidth="8.39999962" markerHeight="8.39999962" viewBox="-4.2 -4.2 8.4 8.4" orient="auto-start-reverse">
			<path d="M -0 -2.8 C 1.5464 -2.8, 2.8 -1.5464, 2.8 0, 2.8 1.5464, 1.5464 2.8, -0 2.8, -1.5464 2.8, -2.8 1.5464, -2.8 0, -2.8 -1.5464, -1.5464 -2.8, -0 -2.8 Z" fill="#000000" stroke="#000000" stroke-linejoin="round" />
		</marker>
		<marker id="CustomMarker-03" markerUnits="strokeWidth" markerWidth="15.000001" markerHeight="9" viewBox="-15 -4.5 15 9" orient="auto-start-reverse">
			<path d="M 0 -0 L -10 -3, -8 -0.5, -8 0.5, -10 3 Z" fill="#000000" stroke="#000000" stroke-linejoin="round" />
		</marker>
		<marker id="CustomMarker-04" markerUnits="strokeWidth" markerWidth="15.000001" markerHeight="9" viewBox="-15 -4.5 15 9" orient="auto-start-reverse">
			<path d="M 0 -0 L -10 -3, -8 -0.5, -8 0.5, -10 3 Z" fill="#000000" stroke="#000000" stroke-linejoin="round" />
		</marker>
		<marker id="CustomMarker-05" markerUnits="strokeWidth" markerWidth="15.000001" markerHeight="9" viewBox="-15 -4.5 15 9" orient="auto-start-reverse">
			<path d="M 0 -0 L -10 -3, -8 -0.5, -8 0.5, -10 3 Z" fill="#000000" stroke="#000000" stroke-linejoin="round" />
		</marker>
		<marker id="CustomMarker-06" markerUnits="strokeWidth" markerWidth="15.000001" markerHeight="9" viewBox="-15 -4.5 15 9" orient="auto-start-reverse">
			<path d="M 0 -0 L -10 -3, -8 -0.5, -8 0.5, -10 3 Z" fill="#000000" stroke="#000000" stroke-linejoin="round" />
		</marker>
	</defs>
	<rect x="-0" y="-0" width="305" height="126.470596" stroke="none" fill="#FFFFFF" />
	<path d="M -103.242 0 L -61.945 0" fill="none" stroke="#000000" stroke-width="3.4000001" stroke-linecap="round" stroke-linejoin="round" transform="matrix(0.294118 0 -0 0.294118 76.9921 22.1436)" />
	<path d="M 61.945 0 L 103.242 0" fill="none" stroke="#000000" stroke-width="3.4000001" stroke-linecap="round" stroke-linejoin="round" transform="matrix(0.294118 0 -0 0.294118 76.9921 22.1436)" />
	<rect x="-61.9450035" y="-15.4862051" width="123.890007" height="30.9724102" stroke="none" fill="#FFFFFF" transform="matrix(0.294118 0 -0 0.294118 76.9921 22.1436)" />
	<path d="M -61.945 -15.4862 L 61.945 -15.4862, 61.945 15.4862, -61.945 15.4862 Z" fill="none" stroke="#000000" stroke-width="5.10000038" stroke-linecap="round" stroke-linejoin="round" transform="matrix(0.294118 0 -0 0.294118 76.9921 22.1436)" />
	<path d="M -103.242 0 L -61.9451 0" fill="none" stroke="#000000" stroke-width="3.4000001" stroke-linecap="round" stroke-linejoin="round" transform="matrix(-1.36739e-007 -0.294118 0.294118 -1.36739e-007 234.829 62.1242)" />
	<path d="M 61.9451 0 L 103.242 0" fill="none" stroke="#000000" stroke-width="3.4000001" stroke-linecap="round" stroke-linejoin="round" transform="matrix(-1.36739e-007 -0.294118 0.294118 -1.36739e-007 234.829 62.1242)" />
	<path d="M -61.9451 -15.4861 L 61.9451 -15.4861, 61.9451 15.4861, -61.9451 15.4861 Z" stroke="none" fill="#FFFFFF" transform="matrix(-1.36739e-007 -0.294118 0.294118 -1.36739e-007 234.829 62.1242)" />
	<path d="M -61.9451 -15.4861 L 61.9451 -15.4861, 61.9451 15.4861, -61.9451 15.4861 Z" fill="none" stroke="#000000" stroke-width="5.10000038" stroke-linecap="round" stroke-linejoin="round" transform="matrix(-1.36739e-007 -0.294118 0.294118 -1.36739e-007 234.829 62.1242)" />
	<path d="M 0 -103.241 L 0 -72.269" fill="none" stroke="#000000" stroke-width="3.4000001" stroke-linecap="round" stroke-linejoin="round" transform="matrix(0.294118 0 -0 0.294118 131.405 62.1242)" />
	<path d="M 0 72.269 L 0 103.241" fill="none" stroke="#000000" stroke-width="3.4000001" stroke-linecap="round" stroke-linejoin="round" transform="matrix(0.294118 0 -0 0.294118 131.405 62.1242)" />
	<path d="M 0 -72.269 L -51.6208 0, 0 72.269, 51.6208 0 Z" stroke="none" fill="#FFFFFF" transform="matrix(0.294118 0 -0 0.294118 131.405 62.1242)" />
	<path d="M 0 -72.269 L -51.6208 0, 0 72.269, 51.6208 0 Z" fill="none" stroke="#000000" stroke-width="5.10000038" stroke-linecap="round" stroke-linejoin="round" transform="matrix(0.294118 0 -0 0.294118 131.405 62.1242)" />
	<path d="M 0 -103.241 L 0 103.241" fill="none" stroke="#000000" stroke-width="3.4000001" stroke-linecap="round" stroke-linejoin="round" transform="matrix(0.294118 0 -0 0.294118 131.405 62.1242)" />
	<path d="M -67.107 103.241 L -36.1346 103.241" fill="none" stroke="#000000" stroke-width="3.4000001" stroke-linecap="round" stroke-linejoin="round" transform="matrix(0.294118 0 -0 0.294118 131.405 62.1242)" />
	<path d="M -51.6208 87.7552 L -51.6208 118.728" fill="none" stroke="#000000" stroke-width="3.4000001" stroke-linecap="round" stroke-linejoin="round" transform="matrix(0.294118 0 -0 0.294118 131.405 62.1242)" />
	<path d="M -67.107 -103.241 L -36.1346 -103.241" fill="none" stroke="#000000" stroke-width="3.4000001" stroke-linecap="round" stroke-linejoin="round" transform="matrix(0.294118 0 -0 0.294118 131.405 62.1242)" />
	<path d="M 0 -103.242 L 0 -72.2691" fill="none" stroke="#000000" stroke-width="3.4000001" stroke-linecap="round" stroke-linejoin="round" transform="matrix(0.294118 0 -0 0.294118 174.098 61.974)" />
	<path d="M 0 72.2691 L 0 103.242" fill="none" stroke="#000000" stroke-width="3.4000001" stroke-linecap="round" stroke-linejoin="round" transform="matrix(0.294118 0 -0 0.294118 174.098 61.974)" />
	<path d="M 0 -72.2691 L -51.621 0, 0 72.2691, 51.621 0 Z" stroke="none" fill="#FFFFFF" transform="matrix(0.294118 0 -0 0.294118 174.098 61.974)" />
	<path d="M 0 -72.2691 L -51.621 0, 0 72.2691, 51.621 0 Z" fill="none" stroke="#000000" stroke-width="5.10000038" stroke-linecap="round" stroke-linejoin="round" transform="matrix(0.294118 0 -0 0.294118 174.098 61.974)" />
	<path d="M -51.621 0 L 51.621 0" fill="none" stroke="#000000" stroke-width="3.4000001" stroke-linecap="round" stroke-linejoin="round" transform="matrix(0.294118 0 -0 0.294118 174.098 61.974)" />
	<path d="M 72.2694 72.2691 L 72.2694 -72.2691" fill="none" stroke="#000000" stroke-width="3.4000001" stroke-linecap="round" stroke-linejoin="round" marker-end="url(#CustomMarker-01)" transform="matrix(0.294118 0 -0 0.294118 174.098 61.974)" />
	<path d="M 0 0 L 0 -32.6923, -81.764 -32.6923" fill="none" stroke="#000000" stroke-width="3.4000001" stroke-linecap="round" stroke-linejoin="round" transform="matrix(0.294118 0 0 0.294118 131.406 31.759)" />
	<path d="M 0 0 L 0 -34, 206.483 -34, 206.483 0.509888" fill="none" stroke="#000000" stroke-width="3.4000001" stroke-linecap="round" stroke-linejoin="round" transform="matrix(0.294118 0 0 0.294118 174.098 31.6089)" />
	<path d="M 0 0 L 0 51.6206, 376.027 51.6206, 376.027 51.6207" fill="none" stroke="#000000" stroke-width="3.4000001" stroke-linecap="round" stroke-linejoin="round" transform="matrix(0.294118 0 0 0.294118 174.098 92.3392)" />
	<path d="M 0 0 L 0 51.1103, 169.543 51.1103, 169.543 51.1104" fill="none" stroke="#000000" stroke-width="3.4000001" stroke-linecap="round" stroke-linejoin="round" transform="matrix(0.294118 0 0 0.294118 234.829 92.4894)" />
	<path d="M 0 0 L -169.543 0" fill="none" stroke="#000000" stroke-width="3.4000001" stroke-linecap="round" stroke-linejoin="round" marker-end="url(#CustomMarker-02)" transform="matrix(0.294118 0 0 0.294118 284.694 22.1436)" />
	<ellipse cx="1593.9606447219849" cy="558.28828144073486" rx="8.9250001907348633" ry="8.9250001907348633" stroke="none" fill="#000000" transform="matrix(0.294118 0 0 0.294118 -184.118 -142.059)" />
	<ellipse cx="1593.9607424736023" cy="558.28825712203979" rx="5.9500002861022949" ry="5.9500002861022949" stroke="none" fill="#FFFFFF" transform="matrix(0.294118 0 0 0.294118 -184.118 -142.059)" />
	<ellipse cx="1424.4171876907349" cy="848.57417011260986" rx="8.9250001907348633" ry="8.9250001907348633" stroke="none" fill="#000000" transform="matrix(0.294118 0 0 0.294118 -184.118 -142.059)" />
	<path d="M 0 0 L 93.9833 -0.000183105" fill="none" stroke="#000000" stroke-width="3.4000001" stroke-linecap="round" stroke-linejoin="round" transform="matrix(0.294118 0 0 0.294118 18.9849 22.1437)" />
	<path d="M 0 0 L 382.231 0, 382.231 -51.1105" fill="none" stroke="#000000" stroke-width="3.4000001" stroke-linecap="round" stroke-linejoin="round" transform="matrix(0.294118 0 0 0.294118 18.9849 107.522)" />
	<ellipse cx="690.54865741729736" cy="558.28858661651611" rx="8.9250001907348633" ry="8.9250001907348633" stroke="none" fill="#000000" transform="matrix(0.294118 0 0 0.294118 -184.118 -142.059)" />
	<ellipse cx="690.54863309860229" cy="558.28856229782104" rx="5.9500002861022949" ry="5.9500002861022949" stroke="none" fill="#FFFFFF" transform="matrix(0.294118 0 0 0.294118 -184.118 -142.059)" />
	<ellipse cx="690.54865741729736" cy="848.57417011260986" rx="8.9250001907348633" ry="8.9250001907348633" stroke="none" fill="#000000" transform="matrix(0.294118 0 0 0.294118 -184.118 -142.059)" />
	<ellipse cx="690.54863309860229" cy="848.57414579391479" rx="5.9500002861022949" ry="5.9500002861022949" stroke="none" fill="#FFFFFF" transform="matrix(0.294118 0 0 0.294118 -184.118 -142.059)" />
	<ellipse cx="1593.9606447219849" cy="848.57417011260986" rx="8.9250001907348633" ry="8.9250001907348633" stroke="none" fill="#000000" transform="matrix(0.294118 0 0 0.294118 -184.118 -142.059)" />
	<ellipse cx="1593.9607424736023" cy="848.57414579391479" rx="5.9500002861022949" ry="5.9500002861022949" stroke="none" fill="#FFFFFF" transform="matrix(0.294118 0 0 0.294118 -184.118 -142.059)" />
	<g transform="matrix(1 0 -0 1 200.516 55.6868)">
		<svg width="63.1043358" height="32.916275">
			<defs />
			<path d="M 8.82091 2.46372 C 8.81044 2.50952, 8.78623 2.54779, 8.74828 2.5792, 8.71033 2.61061, 8.66453 2.62631, 8.61055 2.62598, 8.44174 2.62631, 8.28373 2.62991, 8.13618 2.63678, 7.98897 2.64397, 7.87937 2.66295, 7.8074 2.69403, 7.73935 2.71889, 7.68701 2.80951, 7.65102 2.96622 L 6.1252 8.86536 C 6.11081 8.93209, 6.10361 8.98607, 6.10361 9.02762, 6.10361 9.08029, 6.11441 9.1153, 6.136 9.13231, 6.18278 9.16044, 6.27994 9.17713, 6.42716 9.18236, 6.57471 9.1876, 6.73272 9.19022, 6.90153 9.18989, 7.00229 9.19022, 7.05267 9.23209, 7.05267 9.31551, 7.05267 9.33678, 7.04907 9.35935, 7.04187 9.38356 L 7.02028 9.46208 C 7.00949 9.50788, 6.98528 9.54615, 6.94733 9.57723, 6.90971 9.60864, 6.8639 9.62434, 6.80993 9.62434, 6.36075 9.6034, 5.90961 9.59293, 5.45651 9.59293, 5.00734 9.59293, 4.55097 9.6034, 4.0874 9.62434, 4.03342 9.62434, 3.99383 9.60864, 3.96864 9.57723, 3.94378 9.55302, 3.93102 9.52685, 3.93102 9.49872, 3.93102 9.47811, 3.93462 9.45717, 3.94181 9.4359 L 3.96341 9.35739 C 3.985 9.24256, 4.05501 9.18662, 4.17344 9.18989, 4.34257 9.19022, 4.50091 9.1876, 4.64813 9.18236, 4.79534 9.17713, 4.9069 9.15881, 4.98215 9.12708, 5.04692 9.0924, 5.0973 8.99818, 5.13329 8.84442 L 5.87166 5.98122, 2.94434 5.98122, 2.20564 8.86536 C 2.18405 8.94256, 2.17325 9.00341, 2.17325 9.04856, 2.17325 9.09076, 2.18241 9.11693, 2.2004 9.12708, 2.25078 9.15881, 2.34958 9.17713, 2.4968 9.18236, 2.64434 9.1876, 2.80236 9.19022, 2.97117 9.18989, 3.07193 9.19022, 3.12231 9.23209, 3.12231 9.31551, 3.12231 9.33678, 3.11871 9.35935, 3.11151 9.38356 L 3.08992 9.46208 C 3.06833 9.57069, 2.99832 9.62434, 2.87956 9.62434, 2.43039 9.6034, 1.97762 9.59293, 1.52092 9.59293, 1.07174 9.59293, 0.617005 9.6034, 0.157035 9.62434, 0.103055 9.62434, 0.0634701 9.60864, 0.0382797 9.57723, 0.0134164 9.55302, 0.000984743 9.52685, 0.000657596 9.49872, 0.000984743 9.47811, 0.00458338 9.45717, 0.0114535 9.4359 L 0.0330453 9.35739 C 0.0438412 9.31224, 0.0690316 9.27331, 0.108617 9.23994, 0.148202 9.2069, 0.193021 9.19022, 0.243075 9.18989, 0.41221 9.19022, 0.57055 9.1876, 0.717767 9.18236, 0.864984 9.17713, 0.976541 9.15881, 1.05179 9.12708, 1.11656 9.0924, 1.16694 8.99818, 1.20293 8.84442 L 2.72875 2.94528 C 2.74314 2.87919, 2.75034 2.82685, 2.75034 2.78825, 2.75034 2.73623, 2.73954 2.70319, 2.71795 2.68879, 2.67117 2.66131, 2.57401 2.64397, 2.42679 2.63678, 2.27957 2.62991, 2.12123 2.62631, 1.9521 2.62598, 1.89845 2.62631, 1.85886 2.60897, 1.83367 2.57364, 1.81208 2.55303, 1.80128 2.52686, 1.80128 2.49512, 1.80128 2.47451, 1.80684 2.45521, 1.81731 2.43754 L 1.83367 2.35379 C 1.87326 2.24943, 1.94326 2.19709, 2.04403 2.19676, 2.49353 2.21116, 2.9463 2.21803, 3.40267 2.2177, 3.85937 2.21803, 4.31575 2.21116, 4.77212 2.19676, 4.87288 2.19709, 4.92293 2.2442, 4.92293 2.33809 L 4.92293 2.37997, 4.89055 2.46895 C 4.86895 2.57397, 4.80254 2.62631, 4.69098 2.62598, 4.52218 2.62631, 4.36253 2.62991, 4.21138 2.63678, 4.06024 2.64397, 3.95065 2.66229, 3.88227 2.69174, 3.81423 2.72151, 3.76025 2.81311, 3.72066 2.96622 L 3.06277 5.54153, 5.98518 5.54153, 6.64831 2.94528 C 6.66991 2.86873, 6.68037 2.80951, 6.68037 2.76731, 6.68037 2.72576, 6.67154 2.70123, 6.65355 2.69403, 6.60317 2.66295, 6.50535 2.64397, 6.35977 2.63678, 6.21419 2.62991, 6.05519 2.62631, 5.88246 2.62598, 5.82881 2.62631, 5.78922 2.60897, 5.76403 2.57364, 5.74244 2.55303, 5.73164 2.52686, 5.73164 2.49512, 5.73164 2.47451, 5.73721 2.45521, 5.74767 2.43754 L 5.76403 2.35903 C 5.77483 2.31061, 5.801 2.27135, 5.84222 2.24158, 5.88344 2.21214, 5.92761 2.19709, 5.97439 2.19676, 6.42389 2.21116, 6.87666 2.21803, 7.33304 2.2177, 7.78941 2.21803, 8.24578 2.21116, 8.70215 2.19676, 8.75253 2.19709, 8.79572 2.21443, 8.8317 2.24911, 8.8461 2.27724, 8.85329 2.30341, 8.85329 2.32762, 8.85329 2.34889, 8.84806 2.36819, 8.83694 2.3852 Z" stroke="none" fill="#000000" />
			<path d="M 1.36553 1.82693 L -1.09195 1.82693, -1.09195 1.66571 C -1.09195 1.65417, -1.08591 1.63658, -1.07382 1.61295 L -0.0865343 0.540112 C 0.0301661 0.411321, 0.148332 0.279415, 0.268147 0.144577, 0.387962 0.00973952, 0.495319 -0.128029, 0.589852 -0.268729, 0.684384 -0.409429, 0.759864 -0.554526, 0.816291 -0.70402, 0.872717 -0.853514, 0.900747 -1.01034, 0.900747 -1.17467, 0.900747 -1.31317, 0.88261 -1.44269, 0.846336 -1.56288, 0.810062 -1.68306, 0.757849 -1.78858, 0.689331 -1.87945, 0.620996 -1.97032, 0.53544 -2.0436, 0.432847 -2.09929, 0.330253 -2.15499, 0.211354 -2.18284, 0.0765165 -2.18302, -0.12464 -2.18284, -0.302348 -2.12275, -0.456421 -2.00256, -0.610312 -1.88238, -0.712539 -1.74993, -0.76292 -1.60556, -0.772813 -1.60153, -0.756691 -1.59952, -0.714554 -1.5997 L -0.663258 -1.5997 C -0.602801 -1.58578, -0.550588 -1.56471, -0.506253 -1.53649, -0.461917 -1.5081, -0.424727 -1.46908, -0.394499 -1.41925, -0.36427 -1.36941, -0.349247 -1.30932, -0.349247 -1.23916, -0.349247 -1.12172, -0.387354 -1.03177, -0.463933 -0.969298, -0.540512 -0.906643, -0.626067 -0.875498, -0.7206 -0.875681, -0.811103 -0.875498, -0.895742 -0.906643, -0.974153 -0.969298, -1.05256 -1.03177, -1.09195 -1.12172, -1.09195 -1.23916, -1.09195 -1.40312, -1.05971 -1.55848, -0.995222 -1.70504, -0.930734 -1.8516, -0.843346 -1.97856, -0.732692 -2.0861, -0.622037 -2.19346, -0.49123 -2.27847, -0.340271 -2.34112, -0.189311 -2.4036, -0.0291916 -2.43492, 0.139905 -2.43511, 0.349306 -2.43492, 0.54112 -2.40415, 0.715163 -2.34259, 0.889206 -2.28103, 1.0376 -2.19255, 1.16035 -2.07731, 1.28309 -1.96189, 1.37927 -1.82852, 1.44871 -1.6772, 1.51814 -1.52569, 1.55277 -1.35824, 1.55277 -1.17467, 1.55277 -0.971313, 1.5066 -0.78408, 1.4139 -0.613151, 1.32138 -0.442039, 1.2067 -0.285218, 1.06984 -0.142686, 0.932991 2.96831e-005, 0.787528 0.134318, 0.633454 0.260361, 0.479563 0.386405, 0.340146 0.508968, 0.215384 0.62805 L -0.479138 1.28172, 0.429732 1.28172 C 0.556509 1.2819, 0.674858 1.28099, 0.784413 1.27897, 0.894152 1.27714, 0.987219 1.27311, 1.0638 1.26725, 1.14038 1.26138, 1.17958 1.25754, 1.18141 1.25534, 1.19754 1.24178, 1.21274 1.21448, 1.22685 1.17345, 1.24096 1.13241, 1.25396 1.08404, 1.26605 1.02835, 1.27815 0.972655, 1.29024 0.916045, 1.30233 0.858336, 1.31442 0.800811, 1.32541 0.737606, 1.33549 0.669088 L 1.55881 0.669088 Z" stroke="none" fill="#000000" transform="matrix(1.12 0 0 1 9.96553 9.3179)" />
			<path d="M 1.36701 1.82693 L -1.09048 1.82693, -1.09048 1.66571 C -1.09048 1.65417, -1.08443 1.63658, -1.07234 1.61295 L -0.085059 0.540112 C 0.0316414 0.411321, 0.149807 0.279415, 0.269622 0.144577, 0.389437 0.00973952, 0.496794 -0.128029, 0.591327 -0.268729, 0.68586 -0.409429, 0.761339 -0.554526, 0.817766 -0.70402, 0.874192 -0.853514, 0.902223 -1.01034, 0.902223 -1.17467, 0.902223 -1.31317, 0.884085 -1.44269, 0.847811 -1.56288, 0.811537 -1.68306, 0.759324 -1.78858, 0.690806 -1.87945, 0.622471 -1.97032, 0.536916 -2.0436, 0.434322 -2.09929, 0.331728 -2.15499, 0.212829 -2.18284, 0.0779917 -2.18302, -0.123165 -2.18284, -0.300872 -2.12275, -0.454946 -2.00256, -0.608837 -1.88238, -0.711064 -1.74993, -0.761445 -1.60556, -0.771338 -1.60153, -0.755216 -1.59952, -0.713079 -1.5997 L -0.661782 -1.5997 C -0.601325 -1.58578, -0.549112 -1.56471, -0.504777 -1.53649, -0.460442 -1.5081, -0.423252 -1.46908, -0.393023 -1.41925, -0.362795 -1.36941, -0.347772 -1.30932, -0.347772 -1.23916, -0.347772 -1.12172, -0.385879 -1.03177, -0.462457 -0.969298, -0.539036 -0.906643, -0.624592 -0.875498, -0.719125 -0.875681, -0.809627 -0.875498, -0.894267 -0.906643, -0.972678 -0.969298, -1.05109 -1.03177, -1.09048 -1.12172, -1.09048 -1.23916, -1.09048 -1.40312, -1.05823 -1.55848, -0.993747 -1.70504, -0.929259 -1.8516, -0.841871 -1.97856, -0.731216 -2.0861, -0.620562 -2.19346, -0.489755 -2.27847, -0.338795 -2.34112, -0.187836 -2.4036, -0.0277164 -2.43492, 0.14138 -2.43511, 0.350781 -2.43492, 0.542595 -2.40415, 0.716638 -2.34259, 0.890681 -2.28103, 1.03908 -2.19255, 1.16182 -2.07731, 1.28457 -1.96189, 1.38075 -1.82852, 1.45018 -1.6772, 1.51962 -1.52569, 1.55424 -1.35824, 1.55424 -1.17467, 1.55424 -0.971313, 1.50808 -0.78408, 1.41537 -0.613151, 1.32286 -0.442039, 1.20817 -0.285218, 1.07132 -0.142686, 0.934466 2.96831e-005, 0.789003 0.134318, 0.634929 0.260361, 0.481039 0.386405, 0.341621 0.508968, 0.21686 0.62805 L -0.477663 1.28172, 0.431207 1.28172 C 0.557984 1.2819, 0.676333 1.28099, 0.785889 1.27897, 0.895627 1.27714, 0.988694 1.27311, 1.06527 1.26725, 1.14185 1.26138, 1.18106 1.25754, 1.18289 1.25534, 1.19901 1.24178, 1.21422 1.21448, 1.22832 1.17345, 1.24243 1.13241, 1.25544 1.08404, 1.26753 1.02835, 1.27962 0.972655, 1.29171 0.916045, 1.3038 0.858336, 1.3159 0.800811, 1.32689 0.737606, 1.33696 0.669088 L 1.56029 0.669088 Z" stroke="none" fill="#000000" transform="matrix(1.12 0 0 1 13.5101 9.3179)" />
			<path d="M 19.8123 2.97145 C 19.7799 3.10427, 19.7053 3.21518, 19.5885 3.30416, 19.4717 3.39314, 19.3451 3.43764, 19.2084 3.43731, 19.0648 3.43764, 18.9552 3.38889, 18.8796 3.29075, 18.8292 3.23513, 18.8024 3.16709, 18.7985 3.08661, 18.7985 3.03819, 18.8057 2.98912, 18.82 2.94004, 18.8528 2.80788, 18.9283 2.69697, 19.0468 2.60799, 19.1652 2.519, 19.2928 2.47451, 19.4295 2.47418, 19.5735 2.47451, 19.6831 2.52162, 19.7583 2.61551, 19.8087 2.68225, 19.8339 2.75357, 19.8339 2.83012, 19.8339 2.87919, 19.8267 2.9263, 19.8123 2.97145 Z M 19.8715 8.04879 C 19.8322 8.23069, 19.7711 8.42174, 19.6883 8.62228, 19.6059 8.82315, 19.5041 9.00538, 19.3837 9.16928, 19.2633 9.33351, 19.122 9.47025, 18.9604 9.57985, 18.7988 9.68977, 18.6117 9.74473, 18.3997 9.74473, 18.2201 9.74473, 18.0656 9.70646, 17.9361 9.62958, 17.8065 9.55302, 17.7068 9.45193, 17.6368 9.32631, 17.5667 9.20068, 17.5317 9.06099, 17.5317 8.90723, 17.5245 8.90069, 17.5209 8.88662, 17.5209 8.86536, 17.5209 8.70865, 17.5553 8.54802, 17.6233 8.38379 L 18.4968 6.08067 C 18.6048 5.79147, 18.6584 5.55396, 18.6584 5.36879, 18.6584 5.21209, 18.592 5.13357, 18.4589 5.13325, 18.3369 5.13357, 18.2273 5.16858, 18.1301 5.23826, 18.0333 5.30827, 17.9443 5.40511, 17.8631 5.52877, 17.7823 5.65276, 17.7097 5.79932, 17.6449 5.96846, 17.5802 6.13792, 17.5262 6.31818, 17.483 6.50989, 17.4437 6.60443, 17.3773 6.65318, 17.2838 6.65645 L 17.165 6.65645 C 17.0786 6.65678, 17.0355 6.61327, 17.0355 6.52559 L 17.0355 6.48895 C 17.0786 6.29724, 17.1434 6.10128, 17.2298 5.90041, 17.3161 5.69987, 17.4202 5.51765, 17.5425 5.35342, 17.6649 5.18952, 17.8069 5.05342, 17.9685 4.94514, 18.1301 4.83718, 18.3153 4.78287, 18.5237 4.78254, 18.7036 4.78287, 18.8564 4.82148, 18.982 4.89803, 19.1079 4.97491, 19.2041 5.07698, 19.2705 5.20424, 19.3369 5.33183, 19.3736 5.47544, 19.3808 5.63575 L 19.3808 5.67239 C 19.3808 5.82288, 19.3504 5.97794, 19.2892 6.13825 L 18.4157 8.45184 C 18.3153 8.73482, 18.2649 8.97561, 18.2649 9.17418, 18.2577 9.18138, 18.2541 9.18138, 18.2541 9.17418, 18.2541 9.32467, 18.3225 9.39959, 18.4589 9.39926, 18.5812 9.39959, 18.6918 9.36295, 18.7906 9.28967, 18.8894 9.21639, 18.9794 9.1189, 19.0602 8.99654, 19.141 8.87452, 19.212 8.72795, 19.2731 8.55686, 19.3343 8.38608, 19.3899 8.20615, 19.4403 8.01739, 19.4619 7.92709, 19.5247 7.88162, 19.6288 7.88129 L 19.7475 7.88129 C 19.7871 7.88162, 19.8267 7.89373, 19.8659 7.91793, 19.8771 7.94607, 19.8859 7.97061, 19.8931 7.99122, 19.8931 8.01248, 19.8859 8.03178, 19.8715 8.04879 Z" stroke="none" fill="#000000" />
			<rect />
		</svg>
	</g>
	<g transform="matrix(1 0 -0 1 242.382 55.6868)">
		<svg width="120.092148" height="84.0418396">
			<defs />
			<path d="M 6.6699 4.97098 C 6.64831 5.05506, 6.59106 5.10904, 6.4975 5.13325 L 6.37351 5.13325 C 6.27667 5.13357, 6.22433 5.08287, 6.21713 4.98145, 6.25312 4.741, 6.27307 4.51592, 6.27635 4.30622, 6.27635 4.19139, 6.27275 4.0831, 6.26555 3.98168, 6.23676 3.67482, 6.15955 3.40361, 6.03393 3.16807, 5.9083 2.93252, 5.73917 2.74408, 5.52718 2.60275, 5.31518 2.46143, 5.05608 2.39076, 4.75052 2.39043, 4.37692 2.39076, 4.00135 2.48171, 3.62383 2.66295, 3.24662 2.84452, 2.90508 3.08693, 2.59952 3.3902, 2.24359 3.75006, 1.96518 4.14788, 1.76399 4.58396, 1.56279 5.02038, 1.40445 5.46498, 1.28929 5.9184, 1.16367 6.37936, 1.0953 6.82788, 1.0845 7.26364, 1.0773 7.30584, 1.0737 7.34248, 1.0737 7.37356, 1.0737 7.76123, 1.15287 8.11553, 1.31089 8.43614, 1.46203 8.74006, 1.67926 8.9828, 1.96322 9.16404, 2.24719 9.34561, 2.58349 9.43623, 2.97149 9.4359, 3.18021 9.43623, 3.38664 9.40842, 3.59144 9.35248, 3.79623 9.29687, 3.98238 9.21573, 4.14955 9.10908, 4.31673 9.00276, 4.46133 8.87713, 4.58368 8.73221, 4.70603 8.58761, 4.78684 8.43123, 4.8261 8.2634 L 5.05804 7.34215 C 5.07244 7.29014, 5.07964 7.23943, 5.07964 7.19036, 5.07964 7.13474, 5.06524 7.1017, 5.03645 7.0909, 4.96121 7.05982, 4.83002 7.03987, 4.64289 7.03104, 4.45609 7.02253, 4.26373 7.01795, 4.0658 7.01762, 4.01215 7.01795, 3.97257 7.00225, 3.94738 6.97051, 3.92219 6.9463, 3.90943 6.92013, 3.90943 6.892, 3.90943 6.87139, 3.91303 6.85209, 3.92022 6.83442 L 3.94181 6.7402 C 3.95294 6.69178, 3.97911 6.65351, 4.02033 6.62537, 4.06155 6.59756, 4.10572 6.5835, 4.15217 6.58317, 4.66645 6.60443, 5.19283 6.6149, 5.73197 6.61458, 6.07711 6.6149, 6.42389 6.60443, 6.7723 6.58317, 6.82268 6.5835, 6.86587 6.60084, 6.90185 6.63551, 6.91625 6.66365, 6.92344 6.68818, 6.92344 6.70879, 6.92344 6.73006, 6.91985 6.74936, 6.91265 6.76637 L 6.89106 6.86059 C 6.86947 6.9692, 6.79946 7.02155, 6.6807 7.01762, 6.55508 7.01795, 6.44973 7.02155, 6.36533 7.02842, 6.28093 7.03562, 6.21909 7.05295, 6.17951 7.08043, 6.14712 7.09483, 6.10754 7.19068, 6.06075 7.36833 L 5.51082 9.47254 C 5.51082 9.50428, 5.49119 9.53928, 5.4516 9.57723, 5.41922 9.60864, 5.37603 9.62434, 5.32205 9.62434, 5.2756 9.62434, 5.23961 9.607, 5.21442 9.572, 5.13198 9.47811, 5.05739 9.378, 4.99065 9.27135, 4.92424 9.16502, 4.88008 9.08029, 4.85848 9.01715, 4.65009 9.26513, 4.34453 9.46764, 3.94214 9.62434, 3.53975 9.78137, 3.13507 9.85989, 2.72875 9.85989, 2.23279 9.85989, 1.79179 9.75618, 1.40543 9.54877, 1.01907 9.34136, 0.705335 9.05412, 0.464553 8.68739, 0.212976 8.2935, 0.0654324 7.85709, 0.0222487 7.37879, 0.00785422 7.2499, 0.000656962 7.11577, 0.000656962 6.97575, 0.000656962 6.62374, 0.0458034 6.2642, 0.135442 5.89747, 0.27219 5.38482, 0.48909 4.89018, 0.785486 4.41385, 1.08188 3.93752, 1.45287 3.50405, 1.89844 3.11278, 2.31916 2.75717, 2.77488 2.47451, 3.2656 2.26514, 3.75632 2.05576, 4.2477 1.95107, 4.73973 1.95075, 5.13165 1.95107, 5.46698 2.03744, 5.74538 2.21018, 6.02411 2.38291, 6.22989 2.5913, 6.36271 2.83536 L 7.09062 2.02403 C 7.11941 1.97561, 7.16782 1.95107, 7.2362 1.95075 L 7.27906 1.95075 C 7.36542 1.95107, 7.40861 1.99295, 7.40861 2.07637 L 7.40861 2.11825 Z" stroke="none" fill="#000000" />
			<polyline points="-3.752 -1.1256 3.752 -1.1256" fill="none" stroke="#000000" stroke-width="0.428799987" stroke-linecap="round" stroke-linejoin="round" transform="matrix(1 0 0 1 14.2687 6.40426)" />
			<polyline points="-3.752 1.1256 3.752 1.1256" fill="none" stroke="#000000" stroke-width="0.428799987" stroke-linecap="round" stroke-linejoin="round" transform="matrix(1 0 0 1 14.2687 6.40426)" />
			<path d="M 29.9505 2.46372 C 29.94 2.50952, 29.9158 2.54779, 29.8778 2.5792, 29.8399 2.61061, 29.7941 2.62631, 29.7401 2.62598, 29.5713 2.62631, 29.4133 2.62991, 29.2657 2.63678, 29.1185 2.64397, 29.0089 2.66295, 28.9369 2.69403, 28.8689 2.71889, 28.8166 2.80951, 28.7806 2.96622 L 27.2547 8.86536 C 27.2404 8.93209, 27.2332 8.98607, 27.2332 9.02762, 27.2332 9.08029, 27.244 9.1153, 27.2655 9.13231, 27.3123 9.16044, 27.4095 9.17713, 27.5567 9.18236, 27.7043 9.1876, 27.8623 9.19022, 28.0311 9.18989, 28.1318 9.19022, 28.1822 9.23209, 28.1822 9.31551, 28.1822 9.33678, 28.1786 9.35935, 28.1714 9.38356 L 28.1498 9.46208 C 28.139 9.50788, 28.1148 9.54615, 28.0769 9.57723, 28.0393 9.60864, 27.9935 9.62434, 27.9395 9.62434, 27.4903 9.6034, 27.0392 9.59293, 26.5861 9.59293, 26.1369 9.59293, 25.6805 9.6034, 25.2169 9.62434, 25.163 9.62434, 25.1234 9.60864, 25.0982 9.57723, 25.0733 9.55302, 25.0606 9.52685, 25.0606 9.49872, 25.0606 9.47811, 25.0642 9.45717, 25.0714 9.4359 L 25.093 9.35739 C 25.1145 9.24256, 25.1846 9.18662, 25.303 9.18989, 25.4721 9.19022, 25.6305 9.1876, 25.7777 9.18236, 25.9249 9.17713, 26.0364 9.15881, 26.1117 9.12708, 26.1765 9.0924, 26.2268 8.99818, 26.2628 8.84442 L 27.0012 5.98122, 24.0739 5.98122, 23.3352 8.86536 C 23.3136 8.94256, 23.3028 9.00341, 23.3028 9.04856, 23.3028 9.09076, 23.312 9.11693, 23.33 9.12708, 23.3803 9.15881, 23.4791 9.17713, 23.6263 9.18236, 23.7739 9.1876, 23.9319 9.19022, 24.1007 9.18989, 24.2015 9.19022, 24.2519 9.23209, 24.2519 9.31551, 24.2519 9.33678, 24.2483 9.35935, 24.2411 9.38356 L 24.2195 9.46208 C 24.1979 9.57069, 24.1279 9.62434, 24.0091 9.62434, 23.5599 9.6034, 23.1072 9.59293, 22.6505 9.59293, 22.2013 9.59293, 21.7466 9.6034, 21.2866 9.62434, 21.2326 9.62434, 21.193 9.60864, 21.1678 9.57723, 21.143 9.55302, 21.1305 9.52685, 21.1302 9.49872, 21.1305 9.47811, 21.1341 9.45717, 21.141 9.4359 L 21.1626 9.35739 C 21.1734 9.31224, 21.1986 9.27331, 21.2382 9.23994, 21.2777 9.2069, 21.3226 9.19022, 21.3726 9.18989, 21.5418 9.19022, 21.7001 9.1876, 21.8473 9.18236, 21.9945 9.17713, 22.1061 9.15881, 22.1813 9.12708, 22.2461 9.0924, 22.2965 8.99818, 22.3325 8.84442 L 23.8583 2.94528 C 23.8727 2.87919, 23.8799 2.82685, 23.8799 2.78825, 23.8799 2.73623, 23.8691 2.70319, 23.8475 2.68879, 23.8007 2.66131, 23.7036 2.64397, 23.5563 2.63678, 23.4091 2.62991, 23.2508 2.62631, 23.0816 2.62598, 23.028 2.62631, 22.9884 2.60897, 22.9632 2.57364, 22.9416 2.55303, 22.9308 2.52686, 22.9308 2.49512, 22.9308 2.47451, 22.9364 2.45521, 22.9469 2.43754 L 22.9632 2.35379 C 23.0028 2.24943, 23.0728 2.19709, 23.1736 2.19676, 23.6231 2.21116, 24.0758 2.21803, 24.5322 2.2177, 24.9889 2.21803, 25.4453 2.21116, 25.9017 2.19676, 26.0024 2.19709, 26.0525 2.2442, 26.0525 2.33809 L 26.0525 2.37997, 26.0201 2.46895 C 25.9985 2.57397, 25.9321 2.62631, 25.8205 2.62598, 25.6517 2.62631, 25.4921 2.62991, 25.3409 2.63678, 25.1898 2.64397, 25.0802 2.66229, 25.0118 2.69174, 24.9438 2.72151, 24.8898 2.81311, 24.8502 2.96622 L 24.1923 5.54153, 27.1147 5.54153, 27.7779 2.94528 C 27.7995 2.86873, 27.8099 2.80951, 27.8099 2.76731, 27.8099 2.72576, 27.8011 2.70123, 27.7831 2.69403, 27.7327 2.66295, 27.6349 2.64397, 27.4893 2.63678, 27.3437 2.62991, 27.1847 2.62631, 27.012 2.62598, 26.9584 2.62631, 26.9188 2.60897, 26.8936 2.57364, 26.872 2.55303, 26.8612 2.52686, 26.8612 2.49512, 26.8612 2.47451, 26.8668 2.45521, 26.8772 2.43754 L 26.8936 2.35903 C 26.9044 2.31061, 26.9305 2.27135, 26.9718 2.24158, 27.013 2.21214, 27.0572 2.19709, 27.1039 2.19676, 27.5534 2.21116, 28.0062 2.21803, 28.4626 2.2177, 28.919 2.21803, 29.3753 2.21116, 29.8317 2.19676, 29.8821 2.19709, 29.9253 2.21443, 29.9612 2.24911, 29.9756 2.27724, 29.9828 2.30341, 29.9828 2.32762, 29.9828 2.34889, 29.9776 2.36819, 29.9665 2.3852 Z" stroke="none" fill="#000000" />
			<path d="M 1.36553 1.82693 L -1.09195 1.82693, -1.09195 1.66571 C -1.09195 1.65417, -1.08591 1.63658, -1.07382 1.61295 L -0.0865343 0.540112 C 0.0301661 0.411321, 0.148332 0.279415, 0.268147 0.144577, 0.387962 0.00973952, 0.495319 -0.128029, 0.589852 -0.268729, 0.684384 -0.409429, 0.759864 -0.554526, 0.816291 -0.70402, 0.872717 -0.853514, 0.900747 -1.01034, 0.900747 -1.17467, 0.900747 -1.31317, 0.88261 -1.44269, 0.846336 -1.56288, 0.810062 -1.68306, 0.757849 -1.78858, 0.689331 -1.87945, 0.620996 -1.97032, 0.53544 -2.0436, 0.432847 -2.09929, 0.330253 -2.15499, 0.211354 -2.18284, 0.0765165 -2.18302, -0.12464 -2.18284, -0.302348 -2.12275, -0.456421 -2.00256, -0.610312 -1.88238, -0.712539 -1.74993, -0.76292 -1.60556, -0.772813 -1.60153, -0.756691 -1.59952, -0.714554 -1.5997 L -0.663258 -1.5997 C -0.602801 -1.58578, -0.550588 -1.56471, -0.506253 -1.53649, -0.461917 -1.5081, -0.424727 -1.46908, -0.394499 -1.41925, -0.36427 -1.36941, -0.349247 -1.30932, -0.349247 -1.23916, -0.349247 -1.12172, -0.387354 -1.03177, -0.463933 -0.969298, -0.540512 -0.906643, -0.626067 -0.875498, -0.7206 -0.875681, -0.811103 -0.875498, -0.895742 -0.906643, -0.974153 -0.969298, -1.05256 -1.03177, -1.09195 -1.12172, -1.09195 -1.23916, -1.09195 -1.40312, -1.05971 -1.55848, -0.995222 -1.70504, -0.930734 -1.8516, -0.843346 -1.97856, -0.732692 -2.0861, -0.622037 -2.19346, -0.49123 -2.27847, -0.340271 -2.34112, -0.189311 -2.4036, -0.0291916 -2.43492, 0.139905 -2.43511, 0.349306 -2.43492, 0.54112 -2.40415, 0.715163 -2.34259, 0.889206 -2.28103, 1.0376 -2.19255, 1.16035 -2.07731, 1.28309 -1.96189, 1.37927 -1.82852, 1.44871 -1.6772, 1.51814 -1.52569, 1.55277 -1.35824, 1.55277 -1.17467, 1.55277 -0.971313, 1.5066 -0.78408, 1.4139 -0.613151, 1.32138 -0.442039, 1.2067 -0.285218, 1.06984 -0.142686, 0.932991 2.96831e-005, 0.787528 0.134318, 0.633454 0.260361, 0.479563 0.386405, 0.340146 0.508968, 0.215384 0.62805 L -0.479138 1.28172, 0.429732 1.28172 C 0.556509 1.2819, 0.674858 1.28099, 0.784413 1.27897, 0.894152 1.27714, 0.987219 1.27311, 1.0638 1.26725, 1.14038 1.26138, 1.17958 1.25754, 1.18141 1.25534, 1.19754 1.24178, 1.21274 1.21448, 1.22685 1.17345, 1.24096 1.13241, 1.25396 1.08404, 1.26605 1.02835, 1.27815 0.972655, 1.29024 0.916045, 1.30233 0.858336, 1.31442 0.800811, 1.32541 0.737606, 1.33549 0.669088 L 1.55881 0.669088 Z" stroke="none" fill="#000000" transform="matrix(1.12 0 0 1 31.0951 9.3179)" />
			<path d="M 1.35803 1.82693 C 0.987778 1.81521, 0.627418 1.80934, 0.277134 1.80934, -0.0729676 1.80934, -0.433328 1.81521, -0.803765 1.82693 L -0.803765 1.57484, -0.59528 1.57484 C -0.52896 1.57503, -0.466488 1.57411, -0.408229 1.5721, -0.349787 1.57026, -0.29446 1.56532, -0.242064 1.55744, -0.189668 1.54974, -0.144417 1.54187, -0.106311 1.53381, -0.0740669 1.52813, -0.0473192 1.51017, -0.0262508 1.47976, -0.00499928 1.44953, 0.00544333 1.41582, 0.00544333 1.37845 L 0.00544333 -1.92507 C -0.0951352 -1.87597, -0.218981 -1.83878, -0.365909 -1.8135, -0.512838 -1.78803, -0.673874 -1.77539, -0.849016 -1.77557 L -0.849016 -2.02473 C -0.607371 -2.02455, -0.384413 -2.05331, -0.180141 -2.11102, 0.0241301 -2.16855, 0.200738 -2.27664, 0.349682 -2.43511 L 0.443299 -2.43511 C 0.509618 -2.43492, 0.542778 -2.40268, 0.542778 -2.33838 L 0.542778 1.37845 C 0.542778 1.41766, 0.552854 1.45191, 0.573007 1.48123, 0.593159 1.51054, 0.622471 1.52813, 0.660578 1.53381, 0.692822 1.54187, 0.734225 1.54974, 0.784423 1.55744, 0.834804 1.56532, 0.891597 1.57026, 0.954985 1.5721, 1.01837 1.57411, 1.0803 1.57503, 1.14057 1.57484 L 1.35803 1.57484, 1.35803 1.82693 Z" stroke="none" fill="#000000" transform="matrix(1.12 0 0 1 34.6397 9.3179)" />
			<rect />
		</svg>
	</g>
	<g transform="matrix(1 0 -0 1 82.2127 55.5367)">
		<svg width="80.9130249" height="32.916275">
			<defs />
			<path d="M 8.82091 2.46372 C 8.81044 2.50952, 8.78623 2.54779, 8.74828 2.5792, 8.71033 2.61061, 8.66453 2.62631, 8.61055 2.62598, 8.44174 2.62631, 8.28373 2.62991, 8.13618 2.63678, 7.98897 2.64397, 7.87937 2.66295, 7.8074 2.69403, 7.73935 2.71889, 7.68701 2.80951, 7.65102 2.96622 L 6.1252 8.86536 C 6.11081 8.93209, 6.10361 8.98607, 6.10361 9.02762, 6.10361 9.08029, 6.11441 9.1153, 6.136 9.13231, 6.18278 9.16044, 6.27994 9.17713, 6.42716 9.18236, 6.57471 9.1876, 6.73272 9.19022, 6.90153 9.18989, 7.00229 9.19022, 7.05267 9.23209, 7.05267 9.31551, 7.05267 9.33678, 7.04907 9.35935, 7.04187 9.38356 L 7.02028 9.46208 C 7.00949 9.50788, 6.98528 9.54615, 6.94733 9.57723, 6.90971 9.60864, 6.8639 9.62434, 6.80993 9.62434, 6.36075 9.6034, 5.90961 9.59293, 5.45651 9.59293, 5.00734 9.59293, 4.55097 9.6034, 4.0874 9.62434, 4.03342 9.62434, 3.99383 9.60864, 3.96864 9.57723, 3.94378 9.55302, 3.93102 9.52685, 3.93102 9.49872, 3.93102 9.47811, 3.93462 9.45717, 3.94181 9.4359 L 3.96341 9.35739 C 3.985 9.24256, 4.05501 9.18662, 4.17344 9.18989, 4.34257 9.19022, 4.50091 9.1876, 4.64813 9.18236, 4.79534 9.17713, 4.9069 9.15881, 4.98215 9.12708, 5.04692 9.0924, 5.0973 8.99818, 5.13329 8.84442 L 5.87166 5.98122, 2.94434 5.98122, 2.20564 8.86536 C 2.18405 8.94256, 2.17325 9.00341, 2.17325 9.04856, 2.17325 9.09076, 2.18241 9.11693, 2.2004 9.12708, 2.25078 9.15881, 2.34958 9.17713, 2.4968 9.18236, 2.64434 9.1876, 2.80236 9.19022, 2.97117 9.18989, 3.07193 9.19022, 3.12231 9.23209, 3.12231 9.31551, 3.12231 9.33678, 3.11871 9.35935, 3.11151 9.38356 L 3.08992 9.46208 C 3.06833 9.57069, 2.99832 9.62434, 2.87956 9.62434, 2.43039 9.6034, 1.97762 9.59293, 1.52092 9.59293, 1.07174 9.59293, 0.617005 9.6034, 0.157035 9.62434, 0.103055 9.62434, 0.0634701 9.60864, 0.0382797 9.57723, 0.0134164 9.55302, 0.000984743 9.52685, 0.000657596 9.49872, 0.000984743 9.47811, 0.00458338 9.45717, 0.0114535 9.4359 L 0.0330453 9.35739 C 0.0438412 9.31224, 0.0690316 9.27331, 0.108617 9.23994, 0.148202 9.2069, 0.193021 9.19022, 0.243075 9.18989, 0.41221 9.19022, 0.57055 9.1876, 0.717767 9.18236, 0.864984 9.17713, 0.976541 9.15881, 1.05179 9.12708, 1.11656 9.0924, 1.16694 8.99818, 1.20293 8.84442 L 2.72875 2.94528 C 2.74314 2.87919, 2.75034 2.82685, 2.75034 2.78825, 2.75034 2.73623, 2.73954 2.70319, 2.71795 2.68879, 2.67117 2.66131, 2.57401 2.64397, 2.42679 2.63678, 2.27957 2.62991, 2.12123 2.62631, 1.9521 2.62598, 1.89845 2.62631, 1.85886 2.60897, 1.83367 2.57364, 1.81208 2.55303, 1.80128 2.52686, 1.80128 2.49512, 1.80128 2.47451, 1.80684 2.45521, 1.81731 2.43754 L 1.83367 2.35379 C 1.87326 2.24943, 1.94326 2.19709, 2.04403 2.19676, 2.49353 2.21116, 2.9463 2.21803, 3.40267 2.2177, 3.85937 2.21803, 4.31575 2.21116, 4.77212 2.19676, 4.87288 2.19709, 4.92293 2.2442, 4.92293 2.33809 L 4.92293 2.37997, 4.89055 2.46895 C 4.86895 2.57397, 4.80254 2.62631, 4.69098 2.62598, 4.52218 2.62631, 4.36253 2.62991, 4.21138 2.63678, 4.06024 2.64397, 3.95065 2.66229, 3.88227 2.69174, 3.81423 2.72151, 3.76025 2.81311, 3.72066 2.96622 L 3.06277 5.54153, 5.98518 5.54153, 6.64831 2.94528 C 6.66991 2.86873, 6.68037 2.80951, 6.68037 2.76731, 6.68037 2.72576, 6.67154 2.70123, 6.65355 2.69403, 6.60317 2.66295, 6.50535 2.64397, 6.35977 2.63678, 6.21419 2.62991, 6.05519 2.62631, 5.88246 2.62598, 5.82881 2.62631, 5.78922 2.60897, 5.76403 2.57364, 5.74244 2.55303, 5.73164 2.52686, 5.73164 2.49512, 5.73164 2.47451, 5.73721 2.45521, 5.74767 2.43754 L 5.76403 2.35903 C 5.77483 2.31061, 5.801 2.27135, 5.84222 2.24158, 5.88344 2.21214, 5.92761 2.19709, 5.97439 2.19676, 6.42389 2.21116, 6.87666 2.21803, 7.33304 2.2177, 7.78941 2.21803, 8.24578 2.21116, 8.70215 2.19676, 8.75253 2.19709, 8.79572 2.21443, 8.8317 2.24911, 8.8461 2.27724, 8.85329 2.30341, 8.85329 2.32762, 8.85329 2.34889, 8.84806 2.36819, 8.83694 2.3852 Z" stroke="none" fill="#000000" />
			<path d="M 1.3583 1.82693 C 0.988046 1.81521, 0.627686 1.80934, 0.277401 1.80934, -0.0726999 1.80934, -0.43306 1.81521, -0.803497 1.82693 L -0.803497 1.57484, -0.595012 1.57484 C -0.528692 1.57503, -0.46622 1.57411, -0.407962 1.5721, -0.34952 1.57026, -0.294192 1.56532, -0.241796 1.55744, -0.1894 1.54974, -0.144149 1.54187, -0.106043 1.53381, -0.0737991 1.52813, -0.0470514 1.51017, -0.0259831 1.47976, -0.00473154 1.44953, 0.00571108 1.41582, 0.00571108 1.37845 L 0.00571108 -1.92507 C -0.0948675 -1.87597, -0.218713 -1.83878, -0.365642 -1.8135, -0.512571 -1.78803, -0.673606 -1.77539, -0.848748 -1.77557 L -0.848748 -2.02473 C -0.607103 -2.02455, -0.384145 -2.05331, -0.179874 -2.11102, 0.0243979 -2.16855, 0.201006 -2.27664, 0.34995 -2.43511 L 0.443567 -2.43511 C 0.509886 -2.43492, 0.543046 -2.40268, 0.543046 -2.33838 L 0.543046 1.37845 C 0.543046 1.41766, 0.553122 1.45191, 0.573274 1.48123, 0.593427 1.51054, 0.622739 1.52813, 0.660845 1.53381, 0.693089 1.54187, 0.734493 1.54974, 0.784691 1.55744, 0.835072 1.56532, 0.891865 1.57026, 0.955253 1.5721, 1.01864 1.57411, 1.08056 1.57503, 1.14084 1.57484 L 1.3583 1.57484, 1.3583 1.82693 Z" stroke="none" fill="#000000" transform="matrix(1.12 0 0 1 9.72407 9.3179)" />
			<path d="M 1.35803 1.82693 C 0.987778 1.81521, 0.627418 1.80934, 0.277134 1.80934, -0.0729676 1.80934, -0.433328 1.81521, -0.803765 1.82693 L -0.803765 1.57484, -0.59528 1.57484 C -0.52896 1.57503, -0.466488 1.57411, -0.408229 1.5721, -0.349787 1.57026, -0.29446 1.56532, -0.242064 1.55744, -0.189668 1.54974, -0.144417 1.54187, -0.106311 1.53381, -0.0740669 1.52813, -0.0473192 1.51017, -0.0262508 1.47976, -0.00499928 1.44953, 0.00544333 1.41582, 0.00544333 1.37845 L 0.00544333 -1.92507 C -0.0951352 -1.87597, -0.218981 -1.83878, -0.365909 -1.8135, -0.512838 -1.78803, -0.673874 -1.77539, -0.849016 -1.77557 L -0.849016 -2.02473 C -0.607371 -2.02455, -0.384413 -2.05331, -0.180141 -2.11102, 0.0241301 -2.16855, 0.200738 -2.27664, 0.349682 -2.43511 L 0.443299 -2.43511 C 0.509618 -2.43492, 0.542778 -2.40268, 0.542778 -2.33838 L 0.542778 1.37845 C 0.542778 1.41766, 0.552854 1.45191, 0.573007 1.48123, 0.593159 1.51054, 0.622471 1.52813, 0.660578 1.53381, 0.692822 1.54187, 0.734225 1.54974, 0.784423 1.55744, 0.834804 1.56532, 0.891597 1.57026, 0.954985 1.5721, 1.01837 1.57411, 1.0803 1.57503, 1.14057 1.57484 L 1.35803 1.57484, 1.35803 1.82693 Z" stroke="none" fill="#000000" transform="matrix(1.12 0 0 1 12.9325 9.3179)" />
			<path d="M 21.8374 8.04879 C 21.7982 8.20975, 21.7514 8.38772, 21.6974 8.58303, 21.6438 8.77866, 21.5718 8.9599, 21.4818 9.1274, 21.3922 9.2949, 21.279 9.43983, 21.1423 9.56186, 21.0055 9.68388, 20.8347 9.74473, 20.6299 9.74473, 20.3784 9.74473, 20.1752 9.68028, 20.0208 9.55139, 19.8664 9.42249, 19.7708 9.28967, 19.7349 9.15325, 19.6128 9.30374, 19.4493 9.43983, 19.2445 9.56186, 19.0397 9.68388, 18.8022 9.74473, 18.5326 9.74473, 18.2885 9.74473, 18.07 9.69958, 17.8776 9.60864, 17.6853 9.51834, 17.5335 9.37865, 17.4219 9.18989, 17.3143 8.98771, 17.2623 8.7646, 17.2655 8.51989 L 17.2655 8.47801 C 17.2727 8.22349, 17.3051 7.97061, 17.3627 7.71903, 17.4203 7.47857, 17.504 7.21358, 17.6136 6.92373, 17.7232 6.6342, 17.8282 6.35318, 17.9287 6.08067, 18.0366 5.79147, 18.0906 5.55396, 18.0906 5.36879, 18.0906 5.21209, 18.0242 5.13357, 17.8911 5.13325, 17.769 5.13357, 17.6584 5.16858, 17.5597 5.23826, 17.4609 5.30827, 17.3709 5.40511, 17.2901 5.52877, 17.2093 5.65276, 17.1363 5.79932, 17.0715 5.96846, 17.0068 6.13792, 16.9531 6.31818, 16.9099 6.50989, 16.8703 6.60443, 16.8039 6.65318, 16.7104 6.65645 L 16.5864 6.65645 C 16.5 6.65678, 16.4568 6.61327, 16.4568 6.52559 L 16.4568 6.48895 C 16.5072 6.29724, 16.574 6.10128, 16.6564 5.90041, 16.7392 5.69987, 16.8435 5.51765, 16.9691 5.35342, 17.0951 5.18952, 17.239 5.05342, 17.4007 4.94514, 17.5623 4.83718, 17.7474 4.78287, 17.9558 4.78254, 18.1358 4.78287, 18.2892 4.82148, 18.4168 4.89803, 18.5444 4.97491, 18.6415 5.07698, 18.7079 5.20424, 18.7747 5.33183, 18.8113 5.47544, 18.8185 5.63575 L 18.8185 5.67239 C 18.8185 5.82288, 18.7881 5.97794, 18.7266 6.13825, 18.6226 6.41076, 18.5195 6.68917, 18.4168 6.97346, 18.3144 7.25808, 18.2346 7.51358, 18.177 7.74029, 18.1194 7.96733, 18.0798 8.19209, 18.0582 8.4152, 18.0438 8.47474, 18.035 8.53952, 18.0314 8.60887, 18.0314 8.74529, 18.055 8.87975, 18.1014 9.01192, 18.1338 9.131, 18.193 9.22522, 18.2794 9.2949, 18.3657 9.36491, 18.4681 9.39959, 18.5866 9.39926, 18.8241 9.39959, 19.0308 9.32827, 19.2068 9.18498, 19.3828 9.04202, 19.5373 8.85162, 19.6701 8.61411, 19.6773 8.58663, 19.6828 8.55424, 19.6864 8.5176, 19.69 8.48096, 19.6953 8.44333, 19.7025 8.40473 L 20.5112 5.28504 C 20.5439 5.15615, 20.6093 5.06127, 20.7081 5.0001, 20.8069 4.93925, 20.9067 4.9085, 21.0071 4.90817, 21.1115 4.9085, 21.1979 4.9399, 21.2662 5.00239, 21.313 5.04819, 21.3363 5.10904, 21.3363 5.18559, 21.3363 5.22419, 21.3327 5.26443, 21.3255 5.30598 L 20.5167 8.42567 C 20.4592 8.64224, 20.4304 8.83428, 20.4304 9.00145, 20.4304 9.04725, 20.434 9.096, 20.4412 9.14801, 20.4592 9.31584, 20.5436 9.39959, 20.6947 9.39926, 20.8459 9.39959, 20.9761 9.27069, 21.0857 9.01225, 21.1953 8.75413, 21.3022 8.4224, 21.4063 8.01739, 21.4279 7.92709, 21.489 7.88162, 21.5895 7.88129 L 21.7135 7.88129 C 21.7534 7.88162, 21.793 7.89373, 21.8322 7.91793, 21.8466 7.94967, 21.8538 7.97584, 21.8538 7.99645, 21.8538 8.01085, 21.8486 8.02818, 21.8374 8.04879 Z" stroke="none" fill="#000000" />
			<path d="M 1.36644 1.82693 L -1.09105 1.82693, -1.09105 1.66571 C -1.09105 1.65417, -1.085 1.63658, -1.07291 1.61295 L -0.0856316 0.540112 C 0.0310688 0.411321, 0.149235 0.279415, 0.26905 0.144577, 0.388865 0.00973952, 0.496222 -0.128029, 0.590754 -0.268729, 0.685287 -0.409429, 0.760767 -0.554526, 0.817193 -0.70402, 0.87362 -0.853514, 0.90165 -1.01034, 0.90165 -1.17467, 0.90165 -1.31317, 0.883513 -1.44269, 0.847239 -1.56288, 0.810964 -1.68306, 0.758752 -1.78858, 0.690234 -1.87945, 0.621899 -1.97032, 0.536343 -2.0436, 0.433749 -2.09929, 0.331156 -2.15499, 0.212257 -2.18284, 0.0774192 -2.18302, -0.123738 -2.18284, -0.301445 -2.12275, -0.455519 -2.00256, -0.609409 -1.88238, -0.711637 -1.74993, -0.762017 -1.60556, -0.77191 -1.60153, -0.755789 -1.59952, -0.713652 -1.5997 L -0.662355 -1.5997 C -0.601898 -1.58578, -0.549685 -1.56471, -0.50535 -1.53649, -0.461015 -1.5081, -0.423824 -1.46908, -0.393596 -1.41925, -0.363368 -1.36941, -0.348345 -1.30932, -0.348345 -1.23916, -0.348345 -1.12172, -0.386451 -1.03177, -0.46303 -0.969298, -0.539609 -0.906643, -0.625165 -0.875498, -0.719698 -0.875681, -0.8102 -0.875498, -0.89484 -0.906643, -0.973251 -0.969298, -1.05166 -1.03177, -1.09105 -1.12172, -1.09105 -1.23916, -1.09105 -1.40312, -1.05881 -1.55848, -0.994319 -1.70504, -0.929832 -1.8516, -0.842444 -1.97856, -0.731789 -2.0861, -0.621134 -2.19346, -0.490327 -2.27847, -0.339368 -2.34112, -0.188408 -2.4036, -0.028289 -2.43492, 0.140808 -2.43511, 0.350209 -2.43492, 0.542022 -2.40415, 0.716065 -2.34259, 0.890108 -2.28103, 1.0385 -2.19255, 1.16125 -2.07731, 1.284 -1.96189, 1.38018 -1.82852, 1.44961 -1.6772, 1.51904 -1.52569, 1.55367 -1.35824, 1.55367 -1.17467, 1.55367 -0.971313, 1.5075 -0.78408, 1.4148 -0.613151, 1.32228 -0.442039, 1.2076 -0.285218, 1.07075 -0.142686, 0.933894 2.96831e-005, 0.788431 0.134318, 0.634357 0.260361, 0.480466 0.386405, 0.341048 0.508968, 0.216287 0.62805 L -0.478236 1.28172, 0.430635 1.28172 C 0.557411 1.2819, 0.675761 1.28099, 0.785316 1.27897, 0.895055 1.27714, 0.988122 1.27311, 1.0647 1.26725, 1.14128 1.26138, 1.18049 1.25754, 1.18232 1.25534, 1.19844 1.24178, 1.21364 1.21448, 1.22775 1.17345, 1.24186 1.13241, 1.25487 1.08404, 1.26696 1.02835, 1.27905 0.972655, 1.29114 0.916045, 1.30323 0.858336, 1.31532 0.800811, 1.32631 0.737606, 1.33639 0.669088 L 1.55972 0.669088 Z" stroke="none" fill="#000000" transform="matrix(1.12 0 0 1 23.5058 9.3179)" />
			<rect />
		</svg>
	</g>
	<g transform="matrix(1 0 -0 1 58.9406 0.523726)">
		<svg width="120.092148" height="84.0418396">
			<defs />
			<path d="M 7.40877 8.567 C 7.36951 8.72436, 7.3103 8.87877, 7.23113 9.03057, 7.15196 9.18236, 7.05512 9.31944, 6.93996 9.44147, 6.82481 9.56382, 6.69624 9.6636, 6.55426 9.74211, 6.41227 9.82063, 6.25884 9.85989, 6.0933 9.85989, 5.57216 9.85989, 5.18023 9.72216, 4.91786 9.44637, 4.73826 9.25826, 4.64829 9.02108, 4.64829 8.7345, 4.64829 8.58826, 4.67184 8.42959, 4.71863 8.25817 L 4.96104 7.32122 C 4.98983 7.20279, 5.00423 7.09123, 5.00423 6.98622, 5.00423 6.9342, 5.00063 6.88022, 4.99343 6.82395, 4.97184 6.67772, 4.92179 6.54882, 4.84262 6.43693, 4.76345 6.32538, 4.66203 6.23737, 4.53804 6.1726, 4.41405 6.10815, 4.26749 6.07576, 4.09835 6.07543 L 2.88005 6.07543, 2.16294 8.86536 C 2.14855 8.93209, 2.14135 8.98607, 2.14135 9.02762, 2.14135 9.08029, 2.15215 9.1153, 2.17374 9.13231, 2.22052 9.16044, 2.31768 9.17713, 2.4649 9.18236, 2.61244 9.1876, 2.77046 9.19022, 2.93927 9.18989, 3.04003 9.19022, 3.09041 9.23209, 3.09041 9.31551, 3.09041 9.33678, 3.08681 9.35935, 3.07961 9.38356 L 3.05802 9.46731 C 3.01876 9.572, 2.94843 9.62434, 2.84766 9.62434, 2.40569 9.6034, 1.96011 9.59293, 1.51061 9.59293, 1.06143 9.59293, 0.610296 9.6034, 0.157523 9.62434, 0.0606868 9.62434, 0.00867015 9.57919, 0.00114574 9.48825 L 0.00114574 9.44637, 0.0227375 9.35739 C 0.0515266 9.24256, 0.121536 9.18662, 0.232767 9.18989, 0.401903 9.19022, 0.561878 9.1876, 0.712694 9.18236, 0.863836 9.17713, 0.975067 9.15881, 1.04704 9.12708, 1.11541 9.08913, 1.16743 8.99491, 1.20342 8.84442 L 2.71844 2.94528 C 2.74003 2.86873, 2.7505 2.80951, 2.7505 2.76731, 2.7505 2.72576, 2.74167 2.70123, 2.72368 2.69403, 2.67329 2.66295, 2.57548 2.64397, 2.4299 2.63678, 2.28431 2.62991, 2.12532 2.62631, 1.95259 2.62598, 1.85215 2.62631, 1.80177 2.5792, 1.80177 2.48465 L 1.80177 2.44278, 1.83416 2.35379 C 1.85575 2.24943, 1.92249 2.19709, 2.03372 2.19676 L 5.069 2.19676 C 5.41054 2.19709, 5.73573 2.24256, 6.04489 2.33318, 6.35404 2.42413, 6.62361 2.57397, 6.8536 2.78301, 7.044 2.95084, 7.18238 3.15662, 7.26875 3.40067, 7.32273 3.53349, 7.35152 3.67155, 7.35479 3.81418, 7.35479 3.94374, 7.33516 4.071, 7.29557 4.19629, 7.22753 4.47568, 7.08555 4.72889, 6.86963 4.95561, 6.65404 5.18265, 6.41129 5.37599, 6.14172 5.53629, 5.95492 5.64491, 5.7655 5.73487, 5.57314 5.80619, 5.38077 5.87784, 5.24337 5.92233, 5.1606 5.93934, 5.3654 6.01982, 5.55972 6.17685, 5.74293 6.41043, 5.89767 6.61327, 5.97488 6.85568, 5.97488 7.13801, 5.97488 7.19755, 5.97128 7.25709, 5.96408 7.31598 L 5.86136 8.25817 C 5.83289 8.50288, 5.8185 8.71552, 5.8185 8.89676, 5.8185 9.01584, 5.8257 9.12053, 5.84009 9.21082, 5.86528 9.41693, 5.97291 9.51998, 6.16331 9.51965, 6.33605 9.51998, 6.49406 9.42674, 6.63801 9.23994, 6.78195 9.05347, 6.88795 8.82217, 6.95599 8.54606, 6.99558 8.4417, 7.06559 8.39099, 7.16635 8.39426 L 7.25239 8.39426 C 7.34955 8.39459, 7.40157 8.44006, 7.40877 8.53036 L 7.40877 8.567 Z M 6.14172 4.16489 C 6.1993 3.95584, 6.23169 3.74647, 6.23888 3.53676 L 6.23888 3.50536 C 6.23888 3.32771, 6.18327 3.17428, 6.07171 3.04473, 5.93889 2.89163, 5.7655 2.78334, 5.55155 2.72053, 5.33759 2.65771, 5.10303 2.62631, 4.84785 2.62598 L 4.13074 2.62598 C 3.94754 2.62631, 3.83794 2.64038, 3.80196 2.66818, 3.76597 2.69632, 3.72835 2.79544, 3.68876 2.96622 L 2.97722 5.7352, 4.01755 5.7352 C 4.27272 5.73553, 4.52463 5.70412, 4.77261 5.64131, 5.02058 5.5785, 5.25613 5.46694, 5.47859 5.30598, 5.66932 5.17022, 5.81326 4.99944, 5.9101 4.79334, 6.00726 4.58756, 6.08447 4.37819, 6.14172 4.16489 Z" stroke="none" fill="#000000" />
			<polyline points="-3.752 -1.1256 3.752 -1.1256" fill="none" stroke="#000000" stroke-width="0.428799987" stroke-linecap="round" stroke-linejoin="round" transform="matrix(1 0 0 1 14.2684 6.40426)" />
			<polyline points="-3.752 1.1256 3.752 1.1256" fill="none" stroke="#000000" stroke-width="0.428799987" stroke-linecap="round" stroke-linejoin="round" transform="matrix(1 0 0 1 14.2684 6.40426)" />
			<path d="M 29.9501 2.46372 C 29.9397 2.50952, 29.9154 2.54779, 29.8775 2.5792, 29.8396 2.61061, 29.7937 2.62631, 29.7398 2.62598, 29.571 2.62631, 29.4129 2.62991, 29.2654 2.63678, 29.1182 2.64397, 29.0086 2.66295, 28.9366 2.69403, 28.8686 2.71889, 28.8162 2.80951, 28.7802 2.96622 L 27.2544 8.86536 C 27.24 8.93209, 27.2328 8.98607, 27.2328 9.02762, 27.2328 9.08029, 27.2436 9.1153, 27.2652 9.13231, 27.312 9.16044, 27.4092 9.17713, 27.5564 9.18236, 27.7039 9.1876, 27.8619 9.19022, 28.0307 9.18989, 28.1315 9.19022, 28.1819 9.23209, 28.1819 9.31551, 28.1819 9.33678, 28.1783 9.35935, 28.1711 9.38356 L 28.1495 9.46208 C 28.1387 9.50788, 28.1145 9.54615, 28.0765 9.57723, 28.0389 9.60864, 27.9931 9.62434, 27.9391 9.62434, 27.49 9.6034, 27.0388 9.59293, 26.5857 9.59293, 26.1366 9.59293, 25.6802 9.6034, 25.2166 9.62434, 25.1626 9.62434, 25.1231 9.60864, 25.0979 9.57723, 25.073 9.55302, 25.0602 9.52685, 25.0602 9.49872, 25.0602 9.47811, 25.0638 9.45717, 25.071 9.4359 L 25.0926 9.35739 C 25.1142 9.24256, 25.1842 9.18662, 25.3027 9.18989, 25.4718 9.19022, 25.6301 9.1876, 25.7773 9.18236, 25.9246 9.17713, 26.0361 9.15881, 26.1114 9.12708, 26.1761 9.0924, 26.2265 8.99818, 26.2625 8.84442 L 27.0009 5.98122, 24.0736 5.98122, 23.3349 8.86536 C 23.3133 8.94256, 23.3025 9.00341, 23.3025 9.04856, 23.3025 9.09076, 23.3116 9.11693, 23.3296 9.12708, 23.38 9.15881, 23.4788 9.17713, 23.626 9.18236, 23.7736 9.1876, 23.9316 9.19022, 24.1004 9.18989, 24.2011 9.19022, 24.2515 9.23209, 24.2515 9.31551, 24.2515 9.33678, 24.2479 9.35935, 24.2407 9.38356 L 24.2191 9.46208 C 24.1975 9.57069, 24.1275 9.62434, 24.0088 9.62434, 23.5596 9.6034, 23.1068 9.59293, 22.6501 9.59293, 22.201 9.59293, 21.7462 9.6034, 21.2863 9.62434, 21.2323 9.62434, 21.1927 9.60864, 21.1675 9.57723, 21.1426 9.55302, 21.1302 9.52685, 21.1299 9.49872, 21.1302 9.47811, 21.1338 9.45717, 21.1407 9.4359 L 21.1623 9.35739 C 21.1731 9.31224, 21.1983 9.27331, 21.2378 9.23994, 21.2774 9.2069, 21.3222 9.19022, 21.3723 9.18989, 21.5414 9.19022, 21.6998 9.1876, 21.847 9.18236, 21.9942 9.17713, 22.1058 9.15881, 22.181 9.12708, 22.2458 9.0924, 22.2962 8.99818, 22.3321 8.84442 L 23.858 2.94528 C 23.8724 2.87919, 23.8796 2.82685, 23.8796 2.78825, 23.8796 2.73623, 23.8688 2.70319, 23.8472 2.68879, 23.8004 2.66131, 23.7032 2.64397, 23.556 2.63678, 23.4088 2.62991, 23.2505 2.62631, 23.0813 2.62598, 23.0277 2.62631, 22.9881 2.60897, 22.9629 2.57364, 22.9413 2.55303, 22.9305 2.52686, 22.9305 2.49512, 22.9305 2.47451, 22.9361 2.45521, 22.9465 2.43754 L 22.9629 2.35379 C 23.0025 2.24943, 23.0725 2.19709, 23.1732 2.19676, 23.6227 2.21116, 24.0755 2.21803, 24.5319 2.2177, 24.9886 2.21803, 25.445 2.21116, 25.9013 2.19676, 26.0021 2.19709, 26.0522 2.2442, 26.0522 2.33809 L 26.0522 2.37997, 26.0198 2.46895 C 25.9982 2.57397, 25.9318 2.62631, 25.8202 2.62598, 25.6514 2.62631, 25.4917 2.62991, 25.3406 2.63678, 25.1895 2.64397, 25.0799 2.66229, 25.0115 2.69174, 24.9434 2.72151, 24.8895 2.81311, 24.8499 2.96622 L 24.192 5.54153, 27.1144 5.54153, 27.7775 2.94528 C 27.7991 2.86873, 27.8096 2.80951, 27.8096 2.76731, 27.8096 2.72576, 27.8008 2.70123, 27.7828 2.69403, 27.7324 2.66295, 27.6346 2.64397, 27.489 2.63678, 27.3434 2.62991, 27.1844 2.62631, 27.0117 2.62598, 26.958 2.62631, 26.9184 2.60897, 26.8933 2.57364, 26.8717 2.55303, 26.8609 2.52686, 26.8609 2.49512, 26.8609 2.47451, 26.8664 2.45521, 26.8769 2.43754 L 26.8933 2.35903 C 26.904 2.31061, 26.9302 2.27135, 26.9714 2.24158, 27.0127 2.21214, 27.0568 2.19709, 27.1036 2.19676, 27.5531 2.21116, 28.0059 2.21803, 28.4623 2.2177, 28.9186 2.21803, 29.375 2.21116, 29.8314 2.19676, 29.8818 2.19709, 29.9249 2.21443, 29.9609 2.24911, 29.9753 2.27724, 29.9825 2.30341, 29.9825 2.32762, 29.9825 2.34889, 29.9773 2.36819, 29.9662 2.3852 Z" stroke="none" fill="#000000" />
			<path d="M 1.35821 1.82693 C 0.987952 1.81521, 0.627592 1.80934, 0.277307 1.80934, -0.072794 1.80934, -0.433154 1.81521, -0.803591 1.82693 L -0.803591 1.57484, -0.595106 1.57484 C -0.528786 1.57503, -0.466314 1.57411, -0.408056 1.5721, -0.349614 1.57026, -0.294286 1.56532, -0.24189 1.55744, -0.189494 1.54974, -0.144243 1.54187, -0.106137 1.53381, -0.0738932 1.52813, -0.0471455 1.51017, -0.0260772 1.47976, -0.00482559 1.44953, 0.00561702 1.41582, 0.00561702 1.37845 L 0.00561702 -1.92507 C -0.0949615 -1.87597, -0.218807 -1.83878, -0.365736 -1.8135, -0.512665 -1.78803, -0.6737 -1.77539, -0.848842 -1.77557 L -0.848842 -2.02473 C -0.607197 -2.02455, -0.384239 -2.05331, -0.179968 -2.11102, 0.0243038 -2.16855, 0.200912 -2.27664, 0.349856 -2.43511 L 0.443473 -2.43511 C 0.509792 -2.43492, 0.542952 -2.40268, 0.542952 -2.33838 L 0.542952 1.37845 C 0.542952 1.41766, 0.553028 1.45191, 0.57318 1.48123, 0.593333 1.51054, 0.622645 1.52813, 0.660751 1.53381, 0.692995 1.54187, 0.734399 1.54974, 0.784597 1.55744, 0.834978 1.56532, 0.89177 1.57026, 0.955159 1.5721, 1.01855 1.57411, 1.08047 1.57503, 1.14074 1.57484 L 1.35821 1.57484, 1.35821 1.82693 Z" stroke="none" fill="#000000" transform="matrix(1.12 0 0 1 30.8533 9.3179)" />
			<path d="M 1.36701 1.82693 L -1.09048 1.82693, -1.09048 1.66571 C -1.09048 1.65417, -1.08443 1.63658, -1.07234 1.61295 L -0.085059 0.540112 C 0.0316414 0.411321, 0.149807 0.279415, 0.269622 0.144577, 0.389437 0.00973952, 0.496794 -0.128029, 0.591327 -0.268729, 0.68586 -0.409429, 0.761339 -0.554526, 0.817766 -0.70402, 0.874192 -0.853514, 0.902223 -1.01034, 0.902223 -1.17467, 0.902223 -1.31317, 0.884085 -1.44269, 0.847811 -1.56288, 0.811537 -1.68306, 0.759324 -1.78858, 0.690806 -1.87945, 0.622471 -1.97032, 0.536916 -2.0436, 0.434322 -2.09929, 0.331728 -2.15499, 0.212829 -2.18284, 0.0779917 -2.18302, -0.123165 -2.18284, -0.300872 -2.12275, -0.454946 -2.00256, -0.608837 -1.88238, -0.711064 -1.74993, -0.761445 -1.60556, -0.771338 -1.60153, -0.755216 -1.59952, -0.713079 -1.5997 L -0.661782 -1.5997 C -0.601325 -1.58578, -0.549112 -1.56471, -0.504777 -1.53649, -0.460442 -1.5081, -0.423252 -1.46908, -0.393023 -1.41925, -0.362795 -1.36941, -0.347772 -1.30932, -0.347772 -1.23916, -0.347772 -1.12172, -0.385879 -1.03177, -0.462457 -0.969298, -0.539036 -0.906643, -0.624592 -0.875498, -0.719125 -0.875681, -0.809627 -0.875498, -0.894267 -0.906643, -0.972678 -0.969298, -1.05109 -1.03177, -1.09048 -1.12172, -1.09048 -1.23916, -1.09048 -1.40312, -1.05823 -1.55848, -0.993747 -1.70504, -0.929259 -1.8516, -0.841871 -1.97856, -0.731216 -2.0861, -0.620562 -2.19346, -0.489755 -2.27847, -0.338795 -2.34112, -0.187836 -2.4036, -0.0277164 -2.43492, 0.14138 -2.43511, 0.350781 -2.43492, 0.542595 -2.40415, 0.716638 -2.34259, 0.890681 -2.28103, 1.03908 -2.19255, 1.16182 -2.07731, 1.28457 -1.96189, 1.38075 -1.82852, 1.45018 -1.6772, 1.51962 -1.52569, 1.55424 -1.35824, 1.55424 -1.17467, 1.55424 -0.971313, 1.50808 -0.78408, 1.41537 -0.613151, 1.32286 -0.442039, 1.20817 -0.285218, 1.07132 -0.142686, 0.934466 2.96831e-005, 0.789003 0.134318, 0.634929 0.260361, 0.481039 0.386405, 0.341621 0.508968, 0.21686 0.62805 L -0.477663 1.28172, 0.431207 1.28172 C 0.557984 1.2819, 0.676333 1.28099, 0.785889 1.27897, 0.895627 1.27714, 0.988694 1.27311, 1.06527 1.26725, 1.14185 1.26138, 1.18106 1.25754, 1.18289 1.25534, 1.19901 1.24178, 1.21422 1.21448, 1.22832 1.17345, 1.24243 1.13241, 1.25544 1.08404, 1.26753 1.02835, 1.27962 0.972655, 1.29171 0.916045, 1.3038 0.858336, 1.3159 0.800811, 1.32689 0.737606, 1.33696 0.669088 L 1.56029 0.669088 Z" stroke="none" fill="#000000" transform="matrix(1.12 0 0 1 34.3979 9.3179)" />
			<rect />
		</svg>
	</g>
	<g transform="matrix(1 0 -0 1 292.603 14.1384)">
		<svg width="107.848671" height="110.832527">
			<defs />
			<polyline points="-4.69 0 4.69 0" fill="none" stroke="#000000" stroke-width="0.535999954" stroke-linecap="round" stroke-linejoin="round" transform="matrix(1 0 0 1 4.69 8.00532)" />
			<polyline points="0 -4.69 0 4.69" fill="none" stroke="#000000" stroke-width="0.535999954" stroke-linecap="round" stroke-linejoin="round" transform="matrix(1 0 0 1 4.69 8.00532)" />
			<rect />
		</svg>
	</g>
	<g transform="matrix(1 0 -0 1 292.603 99.5165)">
		<svg width="107.848671" height="80.9162598">
			<defs />
			<polyline points="-4.69 0 4.69 0" fill="none" stroke="#000000" stroke-width="0.535999954" stroke-linecap="round" stroke-linejoin="round" transform="matrix(1 0 0 1 4.69 8.00532)" />
			<rect />
		</svg>
	</g>
	<g transform="matrix(1 0 -0 1 1.94717 13.6036)">
		<svg width="107.848671" height="110.832527">
			<defs />
			<polyline points="-4.69 0 4.69 0" fill="none" stroke="#000000" stroke-width="0.535999954" stroke-linecap="round" stroke-linejoin="round" transform="matrix(1 0 0 1 4.69 8.00532)" />
			<polyline points="0 -4.69 0 4.69" fill="none" stroke="#000000" stroke-width="0.535999954" stroke-linecap="round" stroke-linejoin="round" transform="matrix(1 0 0 1 4.69 8.00532)" />
			<rect />
		</svg>
	</g>
	<g transform="matrix(1 0 -0 1 1.94717 98.9817)">
		<svg width="107.848671" height="80.9162598">
			<defs />
			<polyline points="-4.69 0 4.69 0" fill="none" stroke="#000000" stroke-width="0.535999954" stroke-linecap="round" stroke-linejoin="round" transform="matrix(1 0 0 1 4.69 8.00532)" />
			<rect />
		</svg>
	</g>
	<g transform="matrix(1 0 -0 1 292.95 55.6868)">
		<svg width="29.9356461" height="26.8883686">
			<defs />
			<path d="M 5.3775 8.04879 C 5.33825 8.20975, 5.29146 8.38772, 5.23748 8.58303, 5.18383 8.77866, 5.11186 8.9599, 5.02189 9.1274, 4.93225 9.2949, 4.81906 9.43983, 4.68231 9.56186, 4.54557 9.68388, 4.37479 9.74473, 4.17 9.74473, 3.91842 9.74473, 3.71526 9.68028, 3.56085 9.55139, 3.40643 9.42249, 3.31091 9.28967, 3.27492 9.15325, 3.15289 9.30374, 2.98932 9.43983, 2.78453 9.56186, 2.57973 9.68388, 2.34222 9.74473, 2.07265 9.74473, 1.8286 9.74473, 1.61006 9.69958, 1.4177 9.60864, 1.22534 9.51834, 1.07354 9.37865, 0.961981 9.18989, 0.854349 8.98771, 0.802333 8.7646, 0.805604 8.51989 L 0.805604 8.47801 C 0.812801 8.22349, 0.845189 7.97061, 0.902767 7.71903, 0.960345 7.47857, 1.0441 7.21358, 1.15369 6.92373, 1.26328 6.6342, 1.3683 6.35318, 1.46873 6.08067, 1.57669 5.79147, 1.63067 5.55396, 1.63067 5.36879, 1.63067 5.21209, 1.56426 5.13357, 1.43111 5.13325, 1.30909 5.13357, 1.19851 5.16858, 1.09971 5.23826, 1.00091 5.30827, 0.910946 5.40511, 0.83014 5.52877, 0.749335 5.65276, 0.676381 5.79932, 0.611605 5.96846, 0.54683 6.13792, 0.493177 6.31818, 0.449994 6.50989, 0.410409 6.60443, 0.343998 6.65318, 0.250433 6.65645 L 0.126444 6.65645 C 0.0400769 6.65678, -0.0031067 6.61327, -0.0031067 6.52559 L -0.0031067 6.48895 C 0.0472742 6.29724, 0.114012 6.10128, 0.196454 5.90041, 0.279222 5.69987, 0.383583 5.51765, 0.509208 5.35342, 0.63516 5.18952, 0.779105 5.05342, 0.940717 4.94514, 1.10233 4.83718, 1.28749 4.78287, 1.49589 4.78254, 1.67582 4.78287, 1.82925 4.82148, 1.95684 4.89803, 2.08443 4.97491, 2.18159 5.07698, 2.248 5.20424, 2.31474 5.33183, 2.35138 5.47544, 2.35858 5.63575 L 2.35858 5.67239 C 2.35858 5.82288, 2.32815 5.97794, 2.26665 6.13825, 2.16262 6.41076, 2.05956 6.68917, 1.95684 6.97346, 1.85444 7.25808, 1.77462 7.51358, 1.71704 7.74029, 1.65946 7.96733, 1.61988 8.19209, 1.59828 8.4152, 1.58389 8.47474, 1.57506 8.53952, 1.57146 8.60887, 1.57146 8.74529, 1.59501 8.87975, 1.64147 9.01192, 1.67386 9.131, 1.73307 9.22522, 1.81944 9.2949, 1.9058 9.36491, 2.0082 9.39959, 2.12663 9.39926, 2.36414 9.39959, 2.5709 9.32827, 2.7469 9.18498, 2.92291 9.04202, 3.07732 8.85162, 3.21015 8.61411, 3.21734 8.58663, 3.2229 8.55424, 3.2265 8.5176, 3.2301 8.48096, 3.23534 8.44333, 3.24253 8.40473 L 4.05124 5.28504 C 4.08396 5.15615, 4.14939 5.06127, 4.24819 5.0001, 4.34699 4.93925, 4.44677 4.9085, 4.5472 4.90817, 4.65156 4.9085, 4.73793 4.9399, 4.8063 5.00239, 4.85308 5.04819, 4.87631 5.10904, 4.87631 5.18559, 4.87631 5.22419, 4.87271 5.26443, 4.86552 5.30598 L 4.05681 8.42567 C 3.99923 8.64224, 3.97044 8.83428, 3.97044 9.00145, 3.97044 9.04725, 3.97404 9.096, 3.98123 9.14801, 3.99923 9.31584, 4.08363 9.39959, 4.23477 9.39926, 4.38592 9.39959, 4.51612 9.27069, 4.62572 9.01225, 4.73531 8.75413, 4.84229 8.4224, 4.94632 8.01739, 4.96791 7.92709, 5.02909 7.88162, 5.12953 7.88129 L 5.25351 7.88129 C 5.29343 7.88162, 5.33301 7.89373, 5.37227 7.91793, 5.38666 7.94967, 5.39386 7.97584, 5.39386 7.99645, 5.39386 8.01085, 5.38863 8.02818, 5.3775 8.04879 Z" stroke="none" fill="#000000" />
			<path d="M 1.3665 1.82693 L -1.09062 1.82693, -1.09062 1.66571 C -1.09062 1.65417, -1.08457 1.63658, -1.07248 1.61295 L -0.0853823 0.540112 C 0.0315012 0.411321, 0.149667 0.279415, 0.269482 0.144577, 0.389297 0.00973952, 0.496288 -0.128029, 0.59082 -0.268729, 0.685353 -0.409429, 0.760833 -0.554526, 0.817259 -0.70402, 0.873686 -0.853514, 0.901716 -1.01034, 0.901716 -1.17467, 0.901716 -1.31317, 0.883762 -1.44269, 0.847488 -1.56288, 0.811214 -1.68306, 0.759001 -1.78858, 0.690483 -1.87945, 0.621965 -1.97032, 0.536409 -2.0436, 0.433815 -2.09929, 0.331222 -2.15499, 0.212506 -2.18284, 0.0776684 -2.18302, -0.123489 -2.18284, -0.301196 -2.12275, -0.455086 -2.00256, -0.608977 -1.88238, -0.711204 -1.74993, -0.761585 -1.60556, -0.771478 -1.60153, -0.755356 -1.59952, -0.713219 -1.5997 L -0.661923 -1.5997 C -0.601466 -1.58578, -0.549253 -1.56471, -0.504918 -1.53649, -0.460582 -1.5081, -0.423392 -1.46908, -0.393164 -1.41925, -0.362935 -1.36941, -0.347912 -1.30932, -0.347912 -1.23916, -0.347912 -1.12172, -0.386019 -1.03177, -0.462598 -0.969298, -0.539177 -0.906643, -0.624732 -0.875498, -0.719265 -0.875681, -0.809768 -0.875498, -0.894224 -0.906643, -0.972818 -0.969298, -1.05123 -1.03177, -1.09062 -1.12172, -1.09062 -1.23916, -1.09062 -1.40312, -1.05837 -1.55848, -0.993887 -1.70504, -0.929399 -1.8516, -0.842011 -1.97856, -0.731357 -2.0861, -0.620702 -2.19346, -0.489895 -2.27847, -0.338935 -2.34112, -0.187976 -2.4036, -0.0278566 -2.43492, 0.141057 -2.43511, 0.350275 -2.43492, 0.542088 -2.40415, 0.716131 -2.34259, 0.890174 -2.28103, 1.03857 -2.19255, 1.16131 -2.07731, 1.28406 -1.96189, 1.38024 -1.82852, 1.44968 -1.6772, 1.51911 -1.52569, 1.55374 -1.35824, 1.55374 -1.17467, 1.55374 -0.971313, 1.50757 -0.78408, 1.41487 -0.613151, 1.32235 -0.442039, 1.20767 -0.285218, 1.07081 -0.142686, 0.93396 2.96831e-005, 0.788496 0.134318, 0.634606 0.260361, 0.480715 0.386405, 0.341298 0.508968, 0.216536 0.62805 L -0.477803 1.28172, 0.430884 1.28172 C 0.557661 1.2819, 0.67601 1.28099, 0.785565 1.27897, 0.895304 1.27714, 0.988371 1.27311, 1.06477 1.26725, 1.14135 1.26138, 1.18055 1.25754, 1.18238 1.25534, 1.19851 1.24178, 1.21371 1.21448, 1.22782 1.17345, 1.24192 1.13241, 1.25493 1.08404, 1.26702 1.02835, 1.27911 0.972655, 1.29121 0.916045, 1.3033 0.858336, 1.31539 0.800811, 1.32638 0.737606, 1.33646 0.669088 L 1.55978 0.669088 Z" stroke="none" fill="#000000" transform="matrix(1.12 0 0 1 7.04605 9.3179)" />
			<rect />
		</svg>
	</g>
	<path d="M 49.8918 0 L -49.8918 0" fill="none" stroke="#000000" stroke-width="3.4000001" stroke-linecap="round" stroke-linejoin="round" marker-end="url(#CustomMarker-03)" transform="matrix(0.294118 0 0 0.294118 264.463 16.0504)" />
	<g transform="matrix(1 0 -0 1 261.389 0.523726)">
		<svg width="23.9252129" height="32.916275">
			<defs />
			<path d="M 2.77471 2.97145 C 2.74232 3.10427, 2.66773 3.21518, 2.55094 3.30416, 2.43415 3.39314, 2.30754 3.43764, 2.17079 3.43731, 2.02718 3.43764, 1.91758 3.38889, 1.84201 3.29075, 1.79163 3.23513, 1.7648 3.16709, 1.76088 3.08661, 1.76088 3.03819, 1.76807 2.98912, 1.78247 2.94004, 1.81518 2.80788, 1.89075 2.69697, 2.00918 2.60799, 2.12761 2.519, 2.2552 2.47451, 2.39195 2.47418, 2.53589 2.47451, 2.64549 2.52162, 2.72073 2.61551, 2.77111 2.68225, 2.7963 2.75357, 2.7963 2.83012, 2.7963 2.87919, 2.7891 2.9263, 2.77471 2.97145 Z M 2.83392 8.04879 C 2.79467 8.23069, 2.73349 8.42174, 2.65072 8.62228, 2.56828 8.82315, 2.46654 9.00538, 2.34615 9.16928, 2.22575 9.33351, 2.08443 9.47025, 1.92282 9.57985, 1.7612 9.68977, 1.57407 9.74473, 1.36208 9.74473, 1.18248 9.74473, 1.02806 9.70646, 0.898513 9.62958, 0.768963 9.55302, 0.669182 9.45193, 0.599173 9.32631, 0.529163 9.20068, 0.494158 9.06099, 0.494158 8.90723, 0.486961 8.90069, 0.483362 8.88662, 0.483362 8.86536, 0.483362 8.70865, 0.517713 8.54802, 0.58576 8.38379 L 1.45925 6.08067 C 1.5672 5.79147, 1.62086 5.55396, 1.62086 5.36879, 1.62086 5.21209, 1.55445 5.13357, 1.4213 5.13325, 1.29927 5.13357, 1.18968 5.16858, 1.09251 5.23826, 0.995677 5.30827, 0.906692 5.40511, 0.825559 5.52877, 0.744754 5.65276, 0.672127 5.79932, 0.607351 5.96846, 0.542576 6.13792, 0.488597 6.31818, 0.445413 6.50989, 0.406155 6.60443, 0.339744 6.65318, 0.24618 6.65645 L 0.127425 6.65645 C 0.0410575 6.65678, -0.00212613 6.61327, -0.00212613 6.52559 L -0.00212613 6.48895 C 0.0410575 6.29724, 0.105833 6.10128, 0.1922 5.90041, 0.278567 5.69987, 0.3826 5.51765, 0.504954 5.35342, 0.627307 5.18952, 0.76929 5.05342, 0.930901 4.94514, 1.09251 4.83718, 1.27768 4.78287, 1.48607 4.78254, 1.666 4.78287, 1.81878 4.82148, 1.94441 4.89803, 2.07036 4.97491, 2.16654 5.07698, 2.23295 5.20424, 2.29936 5.33183, 2.336 5.47544, 2.3432 5.63575 L 2.3432 5.67239 C 2.3432 5.82288, 2.31278 5.97794, 2.2516 6.13825 L 1.37811 8.45184 C 1.27768 8.73482, 1.2273 8.97561, 1.2273 9.17418, 1.2201 9.18138, 1.2165 9.18138, 1.2165 9.17418, 1.2165 9.32467, 1.28488 9.39959, 1.4213 9.39926, 1.54365 9.39959, 1.65423 9.36295, 1.75303 9.28967, 1.85182 9.21639, 1.94179 9.1189, 2.0226 8.99654, 2.1034 8.87452, 2.17439 8.72795, 2.23557 8.55686, 2.29675 8.38608, 2.35236 8.20615, 2.40274 8.01739, 2.42433 7.92709, 2.48715 7.88162, 2.59118 7.88129 L 2.70993 7.88129 C 2.74952 7.88162, 2.7891 7.89373, 2.82836 7.91793, 2.83948 7.94607, 2.84832 7.97061, 2.85552 7.99122, 2.85552 8.01248, 2.84832 8.03178, 2.83392 8.04879 Z" stroke="none" fill="#000000" />
			<path d="M 1.3665 1.82693 L -1.09062 1.82693, -1.09062 1.66571 C -1.09062 1.65417, -1.08457 1.63658, -1.07248 1.61295 L -0.0853823 0.540112 C 0.0315012 0.411321, 0.149667 0.279415, 0.269482 0.144577, 0.389297 0.00973952, 0.496288 -0.128029, 0.59082 -0.268729, 0.685353 -0.409429, 0.760833 -0.554526, 0.817259 -0.70402, 0.873686 -0.853514, 0.901716 -1.01034, 0.901716 -1.17467, 0.901716 -1.31317, 0.883762 -1.44269, 0.847488 -1.56288, 0.811214 -1.68306, 0.759001 -1.78858, 0.690483 -1.87945, 0.621965 -1.97032, 0.536409 -2.0436, 0.433815 -2.09929, 0.331222 -2.15499, 0.212506 -2.18284, 0.0776684 -2.18302, -0.123489 -2.18284, -0.301196 -2.12275, -0.455086 -2.00256, -0.608977 -1.88238, -0.711204 -1.74993, -0.761585 -1.60556, -0.771478 -1.60153, -0.755356 -1.59952, -0.713219 -1.5997 L -0.661923 -1.5997 C -0.601466 -1.58578, -0.549253 -1.56471, -0.504918 -1.53649, -0.460582 -1.5081, -0.423392 -1.46908, -0.393164 -1.41925, -0.362935 -1.36941, -0.347912 -1.30932, -0.347912 -1.23916, -0.347912 -1.12172, -0.386019 -1.03177, -0.462598 -0.969298, -0.539177 -0.906643, -0.624732 -0.875498, -0.719265 -0.875681, -0.809768 -0.875498, -0.894224 -0.906643, -0.972818 -0.969298, -1.05123 -1.03177, -1.09062 -1.12172, -1.09062 -1.23916, -1.09062 -1.40312, -1.05837 -1.55848, -0.993887 -1.70504, -0.929399 -1.8516, -0.842011 -1.97856, -0.731357 -2.0861, -0.620702 -2.19346, -0.489895 -2.27847, -0.338935 -2.34112, -0.187976 -2.4036, -0.0278566 -2.43492, 0.141057 -2.43511, 0.350275 -2.43492, 0.542088 -2.40415, 0.716131 -2.34259, 0.890174 -2.28103, 1.03857 -2.19255, 1.16131 -2.07731, 1.28406 -1.96189, 1.38024 -1.82852, 1.44968 -1.6772, 1.51911 -1.52569, 1.55374 -1.35824, 1.55374 -1.17467, 1.55374 -0.971313, 1.50757 -0.78408, 1.41487 -0.613151, 1.32235 -0.442039, 1.20767 -0.285218, 1.07081 -0.142686, 0.93396 2.96831e-005, 0.788496 0.134318, 0.634606 0.260361, 0.480715 0.386405, 0.341298 0.508968, 0.216536 0.62805 L -0.477803 1.28172, 0.430884 1.28172 C 0.557661 1.2819, 0.67601 1.28099, 0.785565 1.27897, 0.895304 1.27714, 0.988371 1.27311, 1.06477 1.26725, 1.14135 1.26138, 1.18055 1.25754, 1.18238 1.25534, 1.19851 1.24178, 1.21371 1.21448, 1.22782 1.17345, 1.24192 1.13241, 1.25493 1.08404, 1.26702 1.02835, 1.27911 0.972655, 1.29121 0.916045, 1.3033 0.858336, 1.31539 0.800811, 1.32638 0.737606, 1.33646 0.669088 L 1.55978 0.669088 Z" stroke="none" fill="#000000" transform="matrix(1.12 0 0 1 4.50672 9.3179)" />
			<rect />
		</svg>
	</g>
	<path d="M -49.892 0 L 49.892 0" fill="none" stroke="#000000" stroke-width="3.4000001" stroke-linecap="round" stroke-linejoin="round" marker-end="url(#CustomMarker-04)" transform="matrix(0.294118 0 0 0.294118 34.1527 16.0504)" />
	<g transform="matrix(1 0 -0 1 31.3275 0.523691)">
		<svg width="21.0312996" height="32.916275">
			<defs />
			<path d="M 2.77471 2.97145 C 2.74232 3.10427, 2.66773 3.21518, 2.55094 3.30416, 2.43415 3.39314, 2.30754 3.43764, 2.17079 3.43731, 2.02718 3.43764, 1.91758 3.38889, 1.84201 3.29075, 1.79163 3.23513, 1.7648 3.16709, 1.76088 3.08661, 1.76088 3.03819, 1.76807 2.98912, 1.78247 2.94004, 1.81518 2.80788, 1.89075 2.69697, 2.00918 2.60799, 2.12761 2.519, 2.2552 2.47451, 2.39195 2.47418, 2.53589 2.47451, 2.64549 2.52162, 2.72073 2.61551, 2.77111 2.68225, 2.7963 2.75357, 2.7963 2.83012, 2.7963 2.87919, 2.7891 2.9263, 2.77471 2.97145 Z M 2.83392 8.04879 C 2.79467 8.23069, 2.73349 8.42174, 2.65072 8.62228, 2.56828 8.82315, 2.46654 9.00538, 2.34615 9.16928, 2.22575 9.33351, 2.08443 9.47025, 1.92282 9.57985, 1.7612 9.68977, 1.57407 9.74473, 1.36208 9.74473, 1.18248 9.74473, 1.02806 9.70646, 0.898513 9.62958, 0.768963 9.55302, 0.669182 9.45193, 0.599173 9.32631, 0.529163 9.20068, 0.494158 9.06099, 0.494158 8.90723, 0.486961 8.90069, 0.483362 8.88662, 0.483362 8.86536, 0.483362 8.70865, 0.517713 8.54802, 0.58576 8.38379 L 1.45925 6.08067 C 1.5672 5.79147, 1.62086 5.55396, 1.62086 5.36879, 1.62086 5.21209, 1.55445 5.13357, 1.4213 5.13325, 1.29927 5.13357, 1.18968 5.16858, 1.09251 5.23826, 0.995677 5.30827, 0.906692 5.40511, 0.825559 5.52877, 0.744754 5.65276, 0.672127 5.79932, 0.607351 5.96846, 0.542576 6.13792, 0.488597 6.31818, 0.445413 6.50989, 0.406155 6.60443, 0.339744 6.65318, 0.24618 6.65645 L 0.127425 6.65645 C 0.0410575 6.65678, -0.00212613 6.61327, -0.00212613 6.52559 L -0.00212613 6.48895 C 0.0410575 6.29724, 0.105833 6.10128, 0.1922 5.90041, 0.278567 5.69987, 0.3826 5.51765, 0.504954 5.35342, 0.627307 5.18952, 0.76929 5.05342, 0.930901 4.94514, 1.09251 4.83718, 1.27768 4.78287, 1.48607 4.78254, 1.666 4.78287, 1.81878 4.82148, 1.94441 4.89803, 2.07036 4.97491, 2.16654 5.07698, 2.23295 5.20424, 2.29936 5.33183, 2.336 5.47544, 2.3432 5.63575 L 2.3432 5.67239 C 2.3432 5.82288, 2.31278 5.97794, 2.2516 6.13825 L 1.37811 8.45184 C 1.27768 8.73482, 1.2273 8.97561, 1.2273 9.17418, 1.2201 9.18138, 1.2165 9.18138, 1.2165 9.17418, 1.2165 9.32467, 1.28488 9.39959, 1.4213 9.39926, 1.54365 9.39959, 1.65423 9.36295, 1.75303 9.28967, 1.85182 9.21639, 1.94179 9.1189, 2.0226 8.99654, 2.1034 8.87452, 2.17439 8.72795, 2.23557 8.55686, 2.29675 8.38608, 2.35236 8.20615, 2.40274 8.01739, 2.42433 7.92709, 2.48715 7.88162, 2.59118 7.88129 L 2.70993 7.88129 C 2.74952 7.88162, 2.7891 7.89373, 2.82836 7.91793, 2.83948 7.94607, 2.84832 7.97061, 2.85552 7.99122, 2.85552 8.01248, 2.84832 8.03178, 2.83392 8.04879 Z" stroke="none" fill="#000000" />
			<path d="M 1.35581 1.82693 C 0.985557 1.81521, 0.62538 1.80934, 0.275096 1.80934, -0.0750055 1.80934, -0.435183 1.81521, -0.805436 1.82693 L -0.805436 1.57484, -0.597134 1.57484 C -0.530815 1.57503, -0.468343 1.57411, -0.410084 1.5721, -0.351642 1.57026, -0.296315 1.56532, -0.243919 1.55744, -0.191523 1.54974, -0.146272 1.54187, -0.108165 1.53381, -0.0759215 1.52813, -0.0493572 1.51017, -0.0282887 1.47976, -0.00703716 1.44953, 0.00340533 1.41582, 0.00340533 1.37845 L 0.00340533 -1.92507 C -0.09699 -1.87597, -0.220835 -1.83878, -0.367764 -1.8135, -0.514693 -1.78803, -0.675545 -1.77539, -0.850688 -1.77557 L -0.850688 -2.02473 C -0.609226 -2.02455, -0.386268 -2.05331, -0.181996 -2.11102, 0.0222753 -2.16855, 0.198883 -2.27664, 0.347644 -2.43511 L 0.441261 -2.43511 C 0.50758 -2.43492, 0.54074 -2.40268, 0.54074 -2.33838 L 0.54074 1.37845 C 0.54074 1.41766, 0.550816 1.45191, 0.570969 1.48123, 0.591121 1.51054, 0.620433 1.52813, 0.65854 1.53381, 0.690784 1.54187, 0.732187 1.54974, 0.782385 1.55744, 0.832583 1.56532, 0.889376 1.57026, 0.952764 1.5721, 1.01615 1.57411, 1.07807 1.57503, 1.13853 1.57484 L 1.35581 1.57484, 1.35581 1.82693 Z" stroke="none" fill="#000000" transform="matrix(1.12 0 0 1 4.26508 9.3179)" />
			<rect />
		</svg>
	</g>
	<g transform="matrix(1 0 -0 1 15.3837 55.6868)">
		<svg width="29.9356461" height="26.8883686">
			<defs />
			<path d="M 5.3775 8.04879 C 5.33825 8.20975, 5.29146 8.38772, 5.23748 8.58303, 5.18383 8.77866, 5.11186 8.9599, 5.02189 9.1274, 4.93225 9.2949, 4.81906 9.43983, 4.68231 9.56186, 4.54557 9.68388, 4.37479 9.74473, 4.17 9.74473, 3.91842 9.74473, 3.71526 9.68028, 3.56085 9.55139, 3.40643 9.42249, 3.31091 9.28967, 3.27492 9.15325, 3.15289 9.30374, 2.98932 9.43983, 2.78453 9.56186, 2.57973 9.68388, 2.34222 9.74473, 2.07265 9.74473, 1.8286 9.74473, 1.61006 9.69958, 1.4177 9.60864, 1.22534 9.51834, 1.07354 9.37865, 0.961981 9.18989, 0.854349 8.98771, 0.802333 8.7646, 0.805604 8.51989 L 0.805604 8.47801 C 0.812801 8.22349, 0.845189 7.97061, 0.902767 7.71903, 0.960345 7.47857, 1.0441 7.21358, 1.15369 6.92373, 1.26328 6.6342, 1.3683 6.35318, 1.46873 6.08067, 1.57669 5.79147, 1.63067 5.55396, 1.63067 5.36879, 1.63067 5.21209, 1.56426 5.13357, 1.43111 5.13325, 1.30909 5.13357, 1.19851 5.16858, 1.09971 5.23826, 1.00091 5.30827, 0.910946 5.40511, 0.83014 5.52877, 0.749335 5.65276, 0.676381 5.79932, 0.611605 5.96846, 0.54683 6.13792, 0.493177 6.31818, 0.449994 6.50989, 0.410409 6.60443, 0.343998 6.65318, 0.250433 6.65645 L 0.126444 6.65645 C 0.0400769 6.65678, -0.0031067 6.61327, -0.0031067 6.52559 L -0.0031067 6.48895 C 0.0472742 6.29724, 0.114012 6.10128, 0.196454 5.90041, 0.279222 5.69987, 0.383583 5.51765, 0.509208 5.35342, 0.63516 5.18952, 0.779105 5.05342, 0.940717 4.94514, 1.10233 4.83718, 1.28749 4.78287, 1.49589 4.78254, 1.67582 4.78287, 1.82925 4.82148, 1.95684 4.89803, 2.08443 4.97491, 2.18159 5.07698, 2.248 5.20424, 2.31474 5.33183, 2.35138 5.47544, 2.35858 5.63575 L 2.35858 5.67239 C 2.35858 5.82288, 2.32815 5.97794, 2.26665 6.13825, 2.16262 6.41076, 2.05956 6.68917, 1.95684 6.97346, 1.85444 7.25808, 1.77462 7.51358, 1.71704 7.74029, 1.65946 7.96733, 1.61988 8.19209, 1.59828 8.4152, 1.58389 8.47474, 1.57506 8.53952, 1.57146 8.60887, 1.57146 8.74529, 1.59501 8.87975, 1.64147 9.01192, 1.67386 9.131, 1.73307 9.22522, 1.81944 9.2949, 1.9058 9.36491, 2.0082 9.39959, 2.12663 9.39926, 2.36414 9.39959, 2.5709 9.32827, 2.7469 9.18498, 2.92291 9.04202, 3.07732 8.85162, 3.21015 8.61411, 3.21734 8.58663, 3.2229 8.55424, 3.2265 8.5176, 3.2301 8.48096, 3.23534 8.44333, 3.24253 8.40473 L 4.05124 5.28504 C 4.08396 5.15615, 4.14939 5.06127, 4.24819 5.0001, 4.34699 4.93925, 4.44677 4.9085, 4.5472 4.90817, 4.65156 4.9085, 4.73793 4.9399, 4.8063 5.00239, 4.85308 5.04819, 4.87631 5.10904, 4.87631 5.18559, 4.87631 5.22419, 4.87271 5.26443, 4.86552 5.30598 L 4.05681 8.42567 C 3.99923 8.64224, 3.97044 8.83428, 3.97044 9.00145, 3.97044 9.04725, 3.97404 9.096, 3.98123 9.14801, 3.99923 9.31584, 4.08363 9.39959, 4.23477 9.39926, 4.38592 9.39959, 4.51612 9.27069, 4.62572 9.01225, 4.73531 8.75413, 4.84229 8.4224, 4.94632 8.01739, 4.96791 7.92709, 5.02909 7.88162, 5.12953 7.88129 L 5.25351 7.88129 C 5.29343 7.88162, 5.33301 7.89373, 5.37227 7.91793, 5.38666 7.94967, 5.39386 7.97584, 5.39386 7.99645, 5.39386 8.01085, 5.38863 8.02818, 5.3775 8.04879 Z" stroke="none" fill="#000000" />
			<path d="M 1.35581 1.82693 C 0.985557 1.81521, 0.62538 1.80934, 0.275096 1.80934, -0.0750055 1.80934, -0.435183 1.81521, -0.805436 1.82693 L -0.805436 1.57484, -0.597134 1.57484 C -0.530815 1.57503, -0.468343 1.57411, -0.410084 1.5721, -0.351642 1.57026, -0.296315 1.56532, -0.243919 1.55744, -0.191523 1.54974, -0.146272 1.54187, -0.108165 1.53381, -0.0759215 1.52813, -0.0493572 1.51017, -0.0282887 1.47976, -0.00703716 1.44953, 0.00340533 1.41582, 0.00340533 1.37845 L 0.00340533 -1.92507 C -0.09699 -1.87597, -0.220835 -1.83878, -0.367764 -1.8135, -0.514693 -1.78803, -0.675545 -1.77539, -0.850688 -1.77557 L -0.850688 -2.02473 C -0.609226 -2.02455, -0.386268 -2.05331, -0.181996 -2.11102, 0.0222753 -2.16855, 0.198883 -2.27664, 0.347644 -2.43511 L 0.441261 -2.43511 C 0.50758 -2.43492, 0.54074 -2.40268, 0.54074 -2.33838 L 0.54074 1.37845 C 0.54074 1.41766, 0.550816 1.45191, 0.570969 1.48123, 0.591121 1.51054, 0.620433 1.52813, 0.65854 1.53381, 0.690784 1.54187, 0.732187 1.54974, 0.782385 1.55744, 0.832583 1.56532, 0.889376 1.57026, 0.952764 1.5721, 1.01615 1.57411, 1.07807 1.57503, 1.13853 1.57484 L 1.35581 1.57484, 1.35581 1.82693 Z" stroke="none" fill="#000000" transform="matrix(1.12 0 0 1 6.80441 9.3179)" />
			<rect />
		</svg>
	</g>
	<path d="M -49.892 0 L 49.892 0" fill="none" stroke="#000000" stroke-width="3.4000001" stroke-linecap="round" stroke-linejoin="round" marker-end="url(#CustomMarker-05)" transform="matrix(0.294118 0 0 0.294118 268.238 112.776)" />
	<g transform="matrix(1 0 -0 1 265.164 113.476)">
		<svg width="23.9252129" height="32.916275">
			<defs />
			<path d="M 2.77471 2.97145 C 2.74232 3.10427, 2.66773 3.21518, 2.55094 3.30416, 2.43415 3.39314, 2.30754 3.43764, 2.17079 3.43731, 2.02718 3.43764, 1.91758 3.38889, 1.84201 3.29075, 1.79163 3.23513, 1.7648 3.16709, 1.76088 3.08661, 1.76088 3.03819, 1.76807 2.98912, 1.78247 2.94004, 1.81518 2.80788, 1.89075 2.69697, 2.00918 2.60799, 2.12761 2.519, 2.2552 2.47451, 2.39195 2.47418, 2.53589 2.47451, 2.64549 2.52162, 2.72073 2.61551, 2.77111 2.68225, 2.7963 2.75357, 2.7963 2.83012, 2.7963 2.87919, 2.7891 2.9263, 2.77471 2.97145 Z M 2.83392 8.04879 C 2.79467 8.23069, 2.73349 8.42174, 2.65072 8.62228, 2.56828 8.82315, 2.46654 9.00538, 2.34615 9.16928, 2.22575 9.33351, 2.08443 9.47025, 1.92282 9.57985, 1.7612 9.68977, 1.57407 9.74473, 1.36208 9.74473, 1.18248 9.74473, 1.02806 9.70646, 0.898513 9.62958, 0.768963 9.55302, 0.669182 9.45193, 0.599173 9.32631, 0.529163 9.20068, 0.494158 9.06099, 0.494158 8.90723, 0.486961 8.90069, 0.483362 8.88662, 0.483362 8.86536, 0.483362 8.70865, 0.517713 8.54802, 0.58576 8.38379 L 1.45925 6.08067 C 1.5672 5.79147, 1.62086 5.55396, 1.62086 5.36879, 1.62086 5.21209, 1.55445 5.13357, 1.4213 5.13325, 1.29927 5.13357, 1.18968 5.16858, 1.09251 5.23826, 0.995677 5.30827, 0.906692 5.40511, 0.825559 5.52877, 0.744754 5.65276, 0.672127 5.79932, 0.607351 5.96846, 0.542576 6.13792, 0.488597 6.31818, 0.445413 6.50989, 0.406155 6.60443, 0.339744 6.65318, 0.24618 6.65645 L 0.127425 6.65645 C 0.0410575 6.65678, -0.00212613 6.61327, -0.00212613 6.52559 L -0.00212613 6.48895 C 0.0410575 6.29724, 0.105833 6.10128, 0.1922 5.90041, 0.278567 5.69987, 0.3826 5.51765, 0.504954 5.35342, 0.627307 5.18952, 0.76929 5.05342, 0.930901 4.94514, 1.09251 4.83718, 1.27768 4.78287, 1.48607 4.78254, 1.666 4.78287, 1.81878 4.82148, 1.94441 4.89803, 2.07036 4.97491, 2.16654 5.07698, 2.23295 5.20424, 2.29936 5.33183, 2.336 5.47544, 2.3432 5.63575 L 2.3432 5.67239 C 2.3432 5.82288, 2.31278 5.97794, 2.2516 6.13825 L 1.37811 8.45184 C 1.27768 8.73482, 1.2273 8.97561, 1.2273 9.17418, 1.2201 9.18138, 1.2165 9.18138, 1.2165 9.17418, 1.2165 9.32467, 1.28488 9.39959, 1.4213 9.39926, 1.54365 9.39959, 1.65423 9.36295, 1.75303 9.28967, 1.85182 9.21639, 1.94179 9.1189, 2.0226 8.99654, 2.1034 8.87452, 2.17439 8.72795, 2.23557 8.55686, 2.29675 8.38608, 2.35236 8.20615, 2.40274 8.01739, 2.42433 7.92709, 2.48715 7.88162, 2.59118 7.88129 L 2.70993 7.88129 C 2.74952 7.88162, 2.7891 7.89373, 2.82836 7.91793, 2.83948 7.94607, 2.84832 7.97061, 2.85552 7.99122, 2.85552 8.01248, 2.84832 8.03178, 2.83392 8.04879 Z" stroke="none" fill="#000000" />
			<path d="M 1.3665 1.82693 L -1.09062 1.82693, -1.09062 1.66571 C -1.09062 1.65417, -1.08457 1.63658, -1.07248 1.61295 L -0.0853823 0.540112 C 0.0315012 0.411321, 0.149667 0.279415, 0.269482 0.144577, 0.389297 0.00973952, 0.496288 -0.128029, 0.59082 -0.268729, 0.685353 -0.409429, 0.760833 -0.554526, 0.817259 -0.70402, 0.873686 -0.853514, 0.901716 -1.01034, 0.901716 -1.17467, 0.901716 -1.31317, 0.883762 -1.44269, 0.847488 -1.56288, 0.811214 -1.68306, 0.759001 -1.78858, 0.690483 -1.87945, 0.621965 -1.97032, 0.536409 -2.0436, 0.433815 -2.09929, 0.331222 -2.15499, 0.212506 -2.18284, 0.0776684 -2.18302, -0.123489 -2.18284, -0.301196 -2.12275, -0.455086 -2.00256, -0.608977 -1.88238, -0.711204 -1.74993, -0.761585 -1.60556, -0.771478 -1.60153, -0.755356 -1.59952, -0.713219 -1.5997 L -0.661923 -1.5997 C -0.601466 -1.58578, -0.549253 -1.56471, -0.504918 -1.53649, -0.460582 -1.5081, -0.423392 -1.46908, -0.393164 -1.41925, -0.362935 -1.36941, -0.347912 -1.30932, -0.347912 -1.23916, -0.347912 -1.12172, -0.386019 -1.03177, -0.462598 -0.969298, -0.539177 -0.906643, -0.624732 -0.875498, -0.719265 -0.875681, -0.809768 -0.875498, -0.894224 -0.906643, -0.972818 -0.969298, -1.05123 -1.03177, -1.09062 -1.12172, -1.09062 -1.23916, -1.09062 -1.40312, -1.05837 -1.55848, -0.993887 -1.70504, -0.929399 -1.8516, -0.842011 -1.97856, -0.731357 -2.0861, -0.620702 -2.19346, -0.489895 -2.27847, -0.338935 -2.34112, -0.187976 -2.4036, -0.0278566 -2.43492, 0.141057 -2.43511, 0.350275 -2.43492, 0.542088 -2.40415, 0.716131 -2.34259, 0.890174 -2.28103, 1.03857 -2.19255, 1.16131 -2.07731, 1.28406 -1.96189, 1.38024 -1.82852, 1.44968 -1.6772, 1.51911 -1.52569, 1.55374 -1.35824, 1.55374 -1.17467, 1.55374 -0.971313, 1.50757 -0.78408, 1.41487 -0.613151, 1.32235 -0.442039, 1.20767 -0.285218, 1.07081 -0.142686, 0.93396 2.96831e-005, 0.788496 0.134318, 0.634606 0.260361, 0.480715 0.386405, 0.341298 0.508968, 0.216536 0.62805 L -0.477803 1.28172, 0.430884 1.28172 C 0.557661 1.2819, 0.67601 1.28099, 0.785565 1.27897, 0.895304 1.27714, 0.988371 1.27311, 1.06477 1.26725, 1.14135 1.26138, 1.18055 1.25754, 1.18238 1.25534, 1.19851 1.24178, 1.21371 1.21448, 1.22782 1.17345, 1.24192 1.13241, 1.25493 1.08404, 1.26702 1.02835, 1.27911 0.972655, 1.29121 0.916045, 1.3033 0.858336, 1.31539 0.800811, 1.32638 0.737606, 1.33646 0.669088 L 1.55978 0.669088 Z" stroke="none" fill="#000000" transform="matrix(1.12 0 0 1 4.50672 9.3179)" />
			<rect />
		</svg>
	</g>
	<path d="M 49.8918 0 L -49.8918 0" fill="none" stroke="#000000" stroke-width="3.4000001" stroke-linecap="round" stroke-linejoin="round" marker-end="url(#CustomMarker-06)" transform="matrix(0.294118 0 0 0.294118 34.1527 112.776)" />
	<g transform="matrix(1 0 -0 1 31.3275 113.476)">
		<svg width="21.0312996" height="32.916275">
			<defs />
			<path d="M 2.77471 2.97145 C 2.74232 3.10427, 2.66773 3.21518, 2.55094 3.30416, 2.43415 3.39314, 2.30754 3.43764, 2.17079 3.43731, 2.02718 3.43764, 1.91758 3.38889, 1.84201 3.29075, 1.79163 3.23513, 1.7648 3.16709, 1.76088 3.08661, 1.76088 3.03819, 1.76807 2.98912, 1.78247 2.94004, 1.81518 2.80788, 1.89075 2.69697, 2.00918 2.60799, 2.12761 2.519, 2.2552 2.47451, 2.39195 2.47418, 2.53589 2.47451, 2.64549 2.52162, 2.72073 2.61551, 2.77111 2.68225, 2.7963 2.75357, 2.7963 2.83012, 2.7963 2.87919, 2.7891 2.9263, 2.77471 2.97145 Z M 2.83392 8.04879 C 2.79467 8.23069, 2.73349 8.42174, 2.65072 8.62228, 2.56828 8.82315, 2.46654 9.00538, 2.34615 9.16928, 2.22575 9.33351, 2.08443 9.47025, 1.92282 9.57985, 1.7612 9.68977, 1.57407 9.74473, 1.36208 9.74473, 1.18248 9.74473, 1.02806 9.70646, 0.898513 9.62958, 0.768963 9.55302, 0.669182 9.45193, 0.599173 9.32631, 0.529163 9.20068, 0.494158 9.06099, 0.494158 8.90723, 0.486961 8.90069, 0.483362 8.88662, 0.483362 8.86536, 0.483362 8.70865, 0.517713 8.54802, 0.58576 8.38379 L 1.45925 6.08067 C 1.5672 5.79147, 1.62086 5.55396, 1.62086 5.36879, 1.62086 5.21209, 1.55445 5.13357, 1.4213 5.13325, 1.29927 5.13357, 1.18968 5.16858, 1.09251 5.23826, 0.995677 5.30827, 0.906692 5.40511, 0.825559 5.52877, 0.744754 5.65276, 0.672127 5.79932, 0.607351 5.96846, 0.542576 6.13792, 0.488597 6.31818, 0.445413 6.50989, 0.406155 6.60443, 0.339744 6.65318, 0.24618 6.65645 L 0.127425 6.65645 C 0.0410575 6.65678, -0.00212613 6.61327, -0.00212613 6.52559 L -0.00212613 6.48895 C 0.0410575 6.29724, 0.105833 6.10128, 0.1922 5.90041, 0.278567 5.69987, 0.3826 5.51765, 0.504954 5.35342, 0.627307 5.18952, 0.76929 5.05342, 0.930901 4.94514, 1.09251 4.83718, 1.27768 4.78287, 1.48607 4.78254, 1.666 4.78287, 1.81878 4.82148, 1.94441 4.89803, 2.07036 4.97491, 2.16654 5.07698, 2.23295 5.20424, 2.29936 5.33183, 2.336 5.47544, 2.3432 5.63575 L 2.3432 5.67239 C 2.3432 5.82288, 2.31278 5.97794, 2.2516 6.13825 L 1.37811 8.45184 C 1.27768 8.73482, 1.2273 8.97561, 1.2273 9.17418, 1.2201 9.18138, 1.2165 9.18138, 1.2165 9.17418, 1.2165 9.32467, 1.28488 9.39959, 1.4213 9.39926, 1.54365 9.39959, 1.65423 9.36295, 1.75303 9.28967, 1.85182 9.21639, 1.94179 9.1189, 2.0226 8.99654, 2.1034 8.87452, 2.17439 8.72795, 2.23557 8.55686, 2.29675 8.38608, 2.35236 8.20615, 2.40274 8.01739, 2.42433 7.92709, 2.48715 7.88162, 2.59118 7.88129 L 2.70993 7.88129 C 2.74952 7.88162, 2.7891 7.89373, 2.82836 7.91793, 2.83948 7.94607, 2.84832 7.97061, 2.85552 7.99122, 2.85552 8.01248, 2.84832 8.03178, 2.83392 8.04879 Z" stroke="none" fill="#000000" />
			<path d="M 1.35581 1.82693 C 0.985557 1.81521, 0.62538 1.80934, 0.275096 1.80934, -0.0750055 1.80934, -0.435183 1.81521, -0.805436 1.82693 L -0.805436 1.57484, -0.597134 1.57484 C -0.530815 1.57503, -0.468343 1.57411, -0.410084 1.5721, -0.351642 1.57026, -0.296315 1.56532, -0.243919 1.55744, -0.191523 1.54974, -0.146272 1.54187, -0.108165 1.53381, -0.0759215 1.52813, -0.0493572 1.51017, -0.0282887 1.47976, -0.00703716 1.44953, 0.00340533 1.41582, 0.00340533 1.37845 L 0.00340533 -1.92507 C -0.09699 -1.87597, -0.220835 -1.83878, -0.367764 -1.8135, -0.514693 -1.78803, -0.675545 -1.77539, -0.850688 -1.77557 L -0.850688 -2.02473 C -0.609226 -2.02455, -0.386268 -2.05331, -0.181996 -2.11102, 0.0222753 -2.16855, 0.198883 -2.27664, 0.347644 -2.43511 L 0.441261 -2.43511 C 0.50758 -2.43492, 0.54074 -2.40268, 0.54074 -2.33838 L 0.54074 1.37845 C 0.54074 1.41766, 0.550816 1.45191, 0.570969 1.48123, 0.591121 1.51054, 0.620433 1.52813, 0.65854 1.53381, 0.690784 1.54187, 0.732187 1.54974, 0.782385 1.55744, 0.832583 1.56532, 0.889376 1.57026, 0.952764 1.5721, 1.01615 1.57411, 1.07807 1.57503, 1.13853 1.57484 L 1.35581 1.57484, 1.35581 1.82693 Z" stroke="none" fill="#000000" transform="matrix(1.12 0 0 1 4.26508 9.3179)" />
			<rect />
		</svg>
	</g>
</svg>
